<svg xmlns="http://www.w3.org/2000/svg" xmlns:xlink="http://www.w3.org/1999/xlink" width="1193.044" height="2095" viewBox="0 0 1193.044 2095">
  <defs>
    <clipPath id="clip-path">
      <path id="Path_2217" data-name="Path 2217" d="M1337.466,0,583.97,22.143,201.83,573.844l-57.409,693.4,137.649,34.311,26.706,40.356,478.789,472.657L509.2,1922.513,1337.466,2095Z" transform="translate(-203 2753)" fill="#fff" stroke="#707070" stroke-width="1"/>
    </clipPath>
  </defs>
  <g id="Mask_Group_6" data-name="Mask Group 6" transform="translate(58.579 -2753)" clip-path="url(#clip-path)">
    <g id="Group_1186" data-name="Group 1186" transform="translate(-27.498 2821.931)" style="mix-blend-mode: multiply;isolation: isolate">
      <path id="Path_1154" data-name="Path 1154" d="M1378.031,2922.806a970.474,970.474,0,0,0,359.081-68.281A950.351,950.351,0,0,0,2052.8,2649.688c91.077-89.013,161.594-192.8,209.59-308.475a916.094,916.094,0,0,0,0-701.776c-48-115.669-118.513-219.446-209.59-308.447a950.424,950.424,0,0,0-315.692-204.837,978.323,978.323,0,0,0-718.152,0A950.262,950.262,0,0,0,703.3,1330.991c-91.091,89-161.616,192.778-209.619,308.447a915.967,915.967,0,0,0,0,701.776c48,115.676,118.528,219.462,209.619,308.475l2.335-2.282-2.335,2.282a950.189,950.189,0,0,0,315.663,204.837A970.393,970.393,0,0,0,1378.031,2922.806Zm0-1858.029c242.67,0,485.348,90.257,670.1,270.776,369.449,361.025,369.449,948.5,0,1309.57-184.733,180.5-427.462,270.757-670.1,270.779-242.7.022-485.312-90.235-670.065-270.779-178.986-174.9-277.558-407.452-277.558-654.8s98.572-479.885,277.558-654.766C892.695,1155.035,1135.36,1064.778,1378.031,1064.778Z" transform="translate(-423.804 -1057.875)" fill="#f87f0f"/>
    </g>
  </g>
</svg>
