<svg id="Group_1188" data-name="Group 1188" xmlns="http://www.w3.org/2000/svg" xmlns:xlink="http://www.w3.org/1999/xlink" width="1830.759" height="1830.761" viewBox="0 0 1830.759 1830.761">
  <defs>
    <linearGradient id="linear-gradient" x1="0.25" y1="0.067" x2="0.75" y2="0.933" gradientUnits="objectBoundingBox">
      <stop offset="0" stop-color="#00406c"/>
      <stop offset="1" stop-color="#45ade4"/>
    </linearGradient>
  </defs>
  <path id="Path_1156" data-name="Path 1156" d="M1468.077,2297.531q-22.12,0-44.3-1.07a909.969,909.969,0,1,1,44.3,1.07ZM1467.9,775.1A606.93,606.93,0,0,0,1258.419,812.6c-152.134,55.865-273.4,167.628-341.474,314.7s-74.793,311.856-18.93,463.986c90.066,245.275,322.91,397.606,570.164,397.623A603.631,603.631,0,0,0,1676.7,1951.7c152.132-55.864,273.4-167.629,341.475-314.7s74.793-311.854,18.93-463.986-167.628-273.4-314.7-341.475A604.859,604.859,0,0,0,1467.9,775.1Z" transform="translate(-552.181 -466.77)" fill="url(#linear-gradient)"/>
</svg>
