<svg id="Group_4547" data-name="Group 4547" xmlns="http://www.w3.org/2000/svg" xmlns:xlink="http://www.w3.org/1999/xlink" width="277.776" height="102" viewBox="0 0 277.776 102">
  <defs>
    <linearGradient id="linear-gradient" y1="0.5" x2="1" y2="0.5" gradientUnits="objectBoundingBox">
      <stop offset="0" stop-color="#e69117"/>
      <stop offset="1" stop-color="#bd411b"/>
    </linearGradient>
  </defs>
  <text id="RENTAL_INCOME" data-name="RENTAL
INCOME" transform="translate(70.776 43)" fill="#242628" font-size="45" font-family="Arvo-Bold, Arvo" letter-spacing="0.04em" font-weight="700"><tspan x="0" y="0">RENTAL</tspan><tspan font-family="Arvo" font-weight="400"><tspan x="0" y="48">INCOME</tspan></tspan></text>
  <g id="Group_1212" data-name="Group 1212" transform="translate(0 19.167)">
    <path id="Path_1217" data-name="Path 1217" d="M42.862,423.608H53.84l2.745-13.854h8.321l-2.7,13.854H77.493l2.745-13.854h8.321l-2.7,13.854h9.8l-1.7,8.668h-9.8l-3.529,18.081H91.041l-1.609,8.493H78.975L75.709,475.8H67.3l3.31-16.946H55.322L52.051,475.8h-8.58l3.354-16.946h-10.5l1.788-8.493H48.522L52.1,432.276H41.073Zm14.113,26.749H72.267L75.8,432.276H60.5Z" transform="translate(-36.325 -409.754)" fill="url(#linear-gradient)"/>
  </g>
</svg>
