<?xml version="1.0" encoding="utf-8"?><svg xmlns="http://www.w3.org/2000/svg" width="130.948" height="59.3" xmlns:v="https://vecta.io/nano"><path d="M6.557 48.66q-.033-.832-.072-1.7l.326.046a2.48 2.48 0 0 0 .31.02c.104 0 .208-.006.311-.019l.324-.048q-.039.867-.07 1.7-.031.833-.031 1.7v2.255l.034 1.706.072 1.651-.635-.026-.637.027.07-1.652.032-1.706v-1.182q-.7-.013-1.354-.019-.654-.006-1.357-.006-.7 0-1.355.008l-1.356.02v1.179q0 .867.034 1.706.034.839.073 1.652l-.636-.027-.635.028q.037-.815.071-1.653.034-.838.031-1.7v-2.26l-.033-1.7-.072-1.7.324.047a2.69 2.69 0 0 0 .311.02 2.39 2.39 0 0 0 .312-.021l.322-.047q-.039.867-.069 1.7-.03.833-.032 1.7v.459l1.356.026 1.355.012 1.356-.013 1.356-.028v-.459l-.033-1.7m3.097 2.703a2.8 2.8 0 0 1 .732-1.011 2.88 2.88 0 0 1 1.017-.564 3.67 3.67 0 0 1 2.252 0 2.95 2.95 0 0 1 1.012.563c.317.278.567.623.733 1.01a4.25 4.25 0 0 1 0 3.029 2.8 2.8 0 0 1-.731 1.011c-.293.253-.638.439-1.011.544-.736.21-1.516.21-2.252 0-.376-.104-.723-.289-1.019-.543a2.83 2.83 0 0 1-.732-1.01 4.24 4.24 0 0 1 0-3.029m.961 2.576a2.83 2.83 0 0 0 .331.911 1.79 1.79 0 0 0 .622.636 2.07 2.07 0 0 0 1.921 0c.257-.156.471-.375.621-.636a2.87 2.87 0 0 0 .331-.911c.066-.351.099-.706.1-1.063a5.55 5.55 0 0 0-.1-1.061 2.85 2.85 0 0 0-.332-.911c-.15-.262-.364-.481-.622-.636a2.07 2.07 0 0 0-1.92 0 1.78 1.78 0 0 0-.622.636 2.87 2.87 0 0 0-.331.911c-.066.35-.1.706-.1 1.062a5.65 5.65 0 0 0 .1 1.062m6.51-2.986l-.084-1.213a3.36 3.36 0 0 0 .583.065 1.48 1.48 0 0 0 .228-.02l.291-.047-.039 1.048h.027a2.13 2.13 0 0 1 1.925-1.18 2.07 2.07 0 0 1 .635.1c.2.062.389.152.563.268a1.84 1.84 0 0 1 .433.412 1.4 1.4 0 0 1 .245.518h.027c.374-.814 1.199-1.325 2.094-1.3a2.6 2.6 0 0 1 .793.117 1.61 1.61 0 0 1 1.048 1.009 2.69 2.69 0 0 1 .15.945l-.012.485-.026.609-.026.788-.012 1.016.006.682.034.708a1.73 1.73 0 0 0-.287-.027h-.556c-.095.001-.19.01-.284.027q.037-.327.082-1.325.045-.998.045-2.78a2.5 2.5 0 0 0-.072-.615 1.34 1.34 0 0 0-.229-.5 1.1 1.1 0 0 0-.415-.334 1.51 1.51 0 0 0-.653-.125 1.57 1.57 0 0 0-1.3.617 1.42 1.42 0 0 0-.161.287 1.7 1.7 0 0 0-.092.44 10.12 10.12 0 0 0-.044.826l-.014 1.462.021 1.029.046 1.017-.565-.027c-.18-.001-.367.01-.563.028q.056-.721.078-1.469.022-.748.024-1.468l-.007-.965-.033-.551a1.85 1.85 0 0 0-.07-.333c-.036-.098-.077-.194-.124-.288-.108-.179-.262-.326-.446-.426-.188-.115-.404-.176-.625-.177a1.43 1.43 0 0 0-1.258.568 2.71 2.71 0 0 0-.4 1.587v1.115l.022 1.239.084 1.173q-.3-.025-.584-.026l-.584.027q.064-.525.083-1.174.019-.649.02-1.239v-1.364q0-.592-.022-1.24m11.024-.431a2.71 2.71 0 0 1 2.211-.92 3 3 0 0 1 1.186.217 2.47 2.47 0 0 1 .837.576 2.3 2.3 0 0 1 .5.845c.11.335.165.685.164 1.037l-.009.256-.018.256-1.387-.027-1.388-.012-.849.014-.849.027a1.03 1.03 0 0 0-.013.2v.17c-.003.325.048.648.15.957.091.283.238.544.434.767a2.1 2.1 0 0 0 .7.511 2.29 2.29 0 0 0 .961.189 2.07 2.07 0 0 0 .531-.072 3.04 3.04 0 0 0 .531-.2 2.87 2.87 0 0 0 .486-.3 2.47 2.47 0 0 0 .4-.367l.065.039-.077.642a3.55 3.55 0 0 1-.966.539 3.3 3.3 0 0 1-1.2.223c-.435.006-.868-.067-1.277-.216a2.8 2.8 0 0 1-1.649-1.6 3.25 3.25 0 0 1-.228-1.22 3.86 3.86 0 0 1 .758-2.531m1.427-.276c-.218.147-.403.337-.545.559a2.7 2.7 0 0 0-.324.733 3.86 3.86 0 0 0-.135.754l.836.03.85.013.869-.014.855-.026c-.001-.25-.021-.5-.059-.748-.037-.256-.115-.503-.233-.733a1.57 1.57 0 0 0-.487-.564 1.36 1.36 0 0 0-.818-.222c-.286-.01-.569.068-.81.222m4.968 4.779a1.88 1.88 0 0 0 .325.3 1.79 1.79 0 0 0 .427.23c.164.062.338.092.513.09a1.47 1.47 0 0 0 .474-.077 1.33 1.33 0 0 0 .4-.224 1.03 1.03 0 0 0 .278-.368 1.18 1.18 0 0 0 .1-.511.82.82 0 0 0-.228-.622 1.77 1.77 0 0 0-.565-.354 6.2 6.2 0 0 0-.738-.243 3.04 3.04 0 0 1-.739-.294c-.223-.123-.415-.294-.565-.5a1.46 1.46 0 0 1-.228-.865 2.14 2.14 0 0 1 .142-.794 1.79 1.79 0 0 1 .415-.622c.194-.183.424-.323.675-.413a2.6 2.6 0 0 1 .921-.153 2.21 2.21 0 0 1 .81.132l.63.236a2.94 2.94 0 0 0-.194.485 3.5 3.5 0 0 0-.118.447h-.155c-.078-.222-.216-.418-.4-.565a1.12 1.12 0 0 0-.739-.248 1.2 1.2 0 0 0-.389.065c-.125.043-.247.112-.35.2a1.05 1.05 0 0 0-.259.341 1.09 1.09 0 0 0-.1.5c-.016.238.066.472.227.648.161.159.353.282.565.361a5.92 5.92 0 0 0 .739.229c.256.062.504.154.738.275a1.6 1.6 0 0 1 .565.493 1.45 1.45 0 0 1 .228.865c0 .258-.056.512-.162.747a2.13 2.13 0 0 1-1.2 1.122 2.71 2.71 0 0 1-.973.164c-.337.008-.674-.032-1-.117a3.16 3.16 0 0 1-.674-.275c.066-.151.121-.306.163-.465a1.9 1.9 0 0 0 .085-.492h.155a1.37 1.37 0 0 0 .2.288m9.692-7.075l-.058.977-.044.964.531-.007.843-.034a.51.51 0 0 0-.014.145v.275a.41.41 0 0 0 .015.132l-.352-.02-.388-.007h-.636c-.008.035-.02.174-.032.42l-.033.871-.019 1.056-.006.983.021.721c.008.217.05.431.123.635.062.176.169.333.312.453.173.124.383.183.595.169a1.88 1.88 0 0 0 .28-.027 2.03 2.03 0 0 0 .3-.065v.315l-.487.1a2.35 2.35 0 0 1-.513.059 1.6 1.6 0 0 1-1.205-.406 1.66 1.66 0 0 1-.39-1.192l.012-.767.033-.906.032-1.088.013-1.331h-.415l-.22.007-.246.02.018-.152c.005-.05.007-.101.007-.151a1.19 1.19 0 0 0-.007-.132c0-.044-.011-.086-.018-.13l.855.039-.022-.656-.032-.813 1.076-.46zm2.522.904l-.021-1.036-.033-.977-.047-.794a3.51 3.51 0 0 0 .586.066 3.62 3.62 0 0 0 .585-.066l-.047.787-.032.963-.019 1.017-.007.943v1h.025a2.71 2.71 0 0 1 .872-.872 2.29 2.29 0 0 1 1.209-.309c.249.001.496.037.735.105a1.77 1.77 0 0 1 .671.353 1.86 1.86 0 0 1 .488.695c.137.358.201.739.189 1.122q0 .563-.025 1.159-.025.596-.026 1.266v.858l.006.413.022.386a5.71 5.71 0 0 0-.552-.026 5.32 5.32 0 0 0-.539.027q.025-.682.058-1.4l.031-1.481v-.8c.036-.524-.097-1.045-.378-1.488a1.22 1.22 0 0 0-1.038-.5 1.55 1.55 0 0 0-1.328.564 2.61 2.61 0 0 0-.421 1.588l.006.852.021.977.033.95.047.748-.585-.027-.584.027.045-.761.033-.97.019-1.036.007-.97v-2.373l-.007-.97m8.308.865a3.31 3.31 0 0 1 1.012-.16 2.57 2.57 0 0 1 .857.138 1.9 1.9 0 0 1 .667.393 1.85 1.85 0 0 1 .434.616c.108.25.162.52.159.793q0 .748-.027 1.487-.027.739-.026 1.568l.009.334a1.02 1.02 0 0 0 .057.315.6.6 0 0 0 .152.23.4.4 0 0 0 .29.091 1.33 1.33 0 0 0 .137-.007c.048-.005.095-.021.136-.047v.288a1.4 1.4 0 0 1-.356.105 2.56 2.56 0 0 1-.473.041.83.83 0 0 1-.91-.773 3.46 3.46 0 0 1-.917.695 2.5 2.5 0 0 1-1.112.223c-.214 0-.427-.03-.633-.09s-.39-.161-.549-.3a1.63 1.63 0 0 1-.387-.5c-.102-.21-.154-.441-.15-.675a1.55 1.55 0 0 1 .484-1.219 2.61 2.61 0 0 1 1.338-.578l1.092-.2a2.72 2.72 0 0 0 .582-.177.4.4 0 0 0 .226-.217 1.1 1.1 0 0 0 .039-.321 2.52 2.52 0 0 0-.077-.629 1.48 1.48 0 0 0-.247-.524c-.117-.152-.268-.276-.441-.36a1.45 1.45 0 0 0-.662-.138 2.02 2.02 0 0 0-.966.237c-.285.144-.518.373-.668.655h-.142v-.682a3.66 3.66 0 0 1 1.075-.6m1.619 3.066l-.587.113a5.49 5.49 0 0 0-.588.15c-.183.058-.357.142-.516.25-.334.219-.525.601-.5 1-.025.346.102.686.348.931a1.13 1.13 0 0 0 .776.314c.321.003.635-.093.9-.275a2.07 2.07 0 0 0 .625-.642l.051-1.967c-.166.058-.337.102-.51.131m4.851-4.871q-.039.5-.057.977-.018.477-.046.964l.532-.007.844-.034a.47.47 0 0 0-.014.145v.275c-.002.044.003.088.015.131l-.351-.019-.39-.008h-.634a3.82 3.82 0 0 0-.033.42l-.032.871-.02 1.056v.983l.02.721c.008.217.05.431.123.635a1.04 1.04 0 0 0 .313.453.91.91 0 0 0 .595.169 1.88 1.88 0 0 0 .28-.027 2 2 0 0 0 .3-.065v.315l-.487.1a2.4 2.4 0 0 1-.512.058 1.61 1.61 0 0 1-1.207-.405c-.28-.332-.42-.76-.389-1.193l.013-.767.031-.9.033-1.089.013-1.33h-.415l-.22.007-.246.02.018-.151a1.25 1.25 0 0 0 .007-.151 1.17 1.17 0 0 0-.006-.132c0-.044-.013-.087-.019-.131l.855.039q-.013-.263-.021-.655l-.033-.814 1.077-.46z" fill="#241918"/><path d="M68.299 45.79h.518a.88.88 0 0 0 .15.058l.137.034h.027l.141-.034.155-.033.521-.013V55.91h-.577c-.02 0-.04-.004-.058-.014a.28.28 0 0 1-.071-.006c-.023-.005-.039-.006-.058-.007h-.052l-.156.021c-.056.005-.1 0-.157 0h-.515zm3.957 1.155c.033-.085.086-.161.155-.222a.75.75 0 0 1 .222-.138.66.66 0 0 1 .246-.047l.519-.013c.093.008.185.027.273.058a.86.86 0 0 1 .247.138.57.57 0 0 1 .174.229.82.82 0 0 1 .058.321.8.8 0 0 1-.085.321c-.043.087-.102.166-.174.231a.77.77 0 0 1-.219.138.7.7 0 0 1-.248.045l-.518-.012a.56.56 0 0 1-.253-.033.72.72 0 0 1-.227-.138.61.61 0 0 1-.168-.243.84.84 0 0 1-.053-.308v-.027a.82.82 0 0 1 .052-.3m.053 2.571h.52c.005.013.014.025.025.034l.018.006.013.014h.034c.017.008.035.012.054.012h.035a.26.26 0 0 1 .043.007l.043.02h.074l.137-.033.122-.034.519-.013v6.385h-.519a.87.87 0 0 1-.109-.007c-.039 0-.08-.011-.124-.02h-.052l-.157.021-.155.006h-.52zm4.915.101l.149.511.174.55.1.289.1.288.111.3.11.287.1.263.1.263.1.263.1.249.207.486.207.458a.9.9 0 0 0 .06.124 1.21 1.21 0 0 1 .056.126l.026-.053.027-.054a.61.61 0 0 1 .027-.064l.025-.065.208-.473.22-.511.026-.078.026-.079c.008-.025.019-.039.033-.065a.74.74 0 0 0 .033-.078c.016-.053.037-.106.057-.159l.058-.157.3-.787.273-.748.214-.628.123-.433.92-.027h.519l-.317.709-.292.669-.277.655-.278.643-.123.288-.123.289-.059.138-.057.138a1.24 1.24 0 0 1-.059.15l-.056.138-.24.61-.254.622-.252.63-.254.615h-.595c-.027 0-.053-.005-.079-.013h-.013c-.024 0-.047.002-.07.007s-.039.006-.059.006h-.519l-2.658-6.292h1.843zm5.726 1.929c.128-.401.354-.763.656-1.056a3.12 3.12 0 0 1 .964-.636 2.87 2.87 0 0 1 1.137-.217l.516-.014a3.5 3.5 0 0 1 .975.151 1.9 1.9 0 0 1 .713.4 3.67 3.67 0 0 1 .506.57 2.6 2.6 0 0 1 .324.623l.078.268a1.51 1.51 0 0 1 .052.282 2.65 2.65 0 0 1 .039.256l.015.229v.132a.1.1 0 0 0-.014.053v.052a.74.74 0 0 1-.007.105.35.35 0 0 1-.019.091l-.519-.012-3.877-.011a4.47 4.47 0 0 0 .117 1.075c.069.293.187.573.35.826.145.216.348.386.585.492.282.125.586.192.894.2a2.1 2.1 0 0 0 .409-.065c.137-.036.271-.084.4-.144.164-.066.318-.152.46-.257a1.84 1.84 0 0 0 .357-.348l.518-.013.106.708-.027.039-.027.014-.078.053-.077.053a4.4 4.4 0 0 1-.421.262 2.71 2.71 0 0 1-.447.2 2.26 2.26 0 0 1-.552.157 4.46 4.46 0 0 1-.719.054h-.525a4.03 4.03 0 0 1-1.38-.281 2.22 2.22 0 0 1-.928-.7 3.65 3.65 0 0 1-.539-.984 4.07 4.07 0 0 1-.228-1.1v-.036a4.59 4.59 0 0 1 .213-1.475m4.391.693v-.151c-.006-.006-.01-.013-.013-.02v-.038a2.61 2.61 0 0 0-.111-.684 2.47 2.47 0 0 0-.279-.609 1.06 1.06 0 0 0-.383-.392 1.4 1.4 0 0 0-.576-.184 1.44 1.44 0 0 0-.463.158 1.4 1.4 0 0 0-.382.315 3.3 3.3 0 0 0-.35.511c-.096.178-.17.368-.219.564l-.034.158-.032.158a.9.9 0 0 0-.013.152v.137l2.853-.028zm7.221-5.305a.57.57 0 0 1 .156-.223c.069-.061.14-.105.221-.138a.68.68 0 0 1 .246-.047l.519-.013a1.11 1.11 0 0 1 .273.059.85.85 0 0 1 .247.138.56.56 0 0 1 .175.23.76.76 0 0 1-.027.641.8.8 0 0 1-.174.23.75.75 0 0 1-.22.138.68.68 0 0 1-.248.046l-.518-.012a.57.57 0 0 1-.252-.033.72.72 0 0 1-.228-.138.6.6 0 0 1-.168-.244.84.84 0 0 1-.053-.308v-.025a.82.82 0 0 1 .052-.3m.053 2.57h.52c.005.013.014.025.025.033s.017.007.026.007v.013h.026c.02.007.04.012.061.013h.051a.1.1 0 0 1 .027.007c.008.004.017.006.026.006.005.005.011.01.017.014h.074l.137-.034.122-.033.519-.013v6.385h-.519a.86.86 0 0 1-.109-.006c-.039 0-.08-.011-.124-.02h-.052l-.156.02-.155.007h-.521zm3.995-.002h.519c.031.02.064.036.1.046l.111.033h.05l.006.013h.06l.15-.034.123-.033.518-.013v.508l.253-.183.3-.184a1.77 1.77 0 0 1 .48-.178 2.82 2.82 0 0 1 .6-.057l.518-.014h.039a2.06 2.06 0 0 1 .719.183 2.37 2.37 0 0 1 .655.458c.223.227.384.507.468.813a4.34 4.34 0 0 1 .158 1.247v3.789h-.57c-.018-.002-.036-.006-.053-.013-.021 0-.043-.002-.064-.006s-.034-.007-.052-.007h-.031l-.162.02a2.14 2.14 0 0 1-.187.007h-.52v-3.815a2.53 2.53 0 0 0-.116-.794 1.64 1.64 0 0 0-.338-.584c-.105-.116-.228-.215-.364-.293a1.29 1.29 0 0 0-.4-.152 1.5 1.5 0 0 0-.447.184 1.8 1.8 0 0 0-.408.354c-.171.177-.296.393-.364.629a2.99 2.99 0 0 0-.115.879v3.592h-.519c-.05 0-.099-.002-.149-.007a1.13 1.13 0 0 1-.137-.021h-.014c-.026 0-.052.003-.077.008s-.043.007-.065.007c-.025.008-.051.013-.077.013h-.6zm11.751.157l.18.033h.044c.013.003.026.008.039.013l.042-.013h.046l.15-.034.122-.033.52-.013a6.8 6.8 0 0 0 .156.478l.259.715.332.847.371.9.025.058.026.059c.002.02.006.04.014.059l.025.058.054.112c.019.04.033.08.051.124l.079.19.089.2c.032.067.053.125.079.19l.077.19a.19.19 0 0 0 .006.033c.003.011.012.023.021.033a.07.07 0 0 1 .018.033c.005.01.007.022.007.033a.14.14 0 0 0 .021-.027l.019-.039c0-.011.002-.022.006-.033s.01-.024.019-.033l.168-.386.182-.414.057-.138c.023-.049.042-.099.059-.15l.058-.139.07-.151.349-.878.312-.827.232-.669a3.04 3.04 0 0 0 .117-.42l.518-.013a.72.72 0 0 0 .1.04l.1.026c.044-.008.08-.018.111-.026l.1-.027.519-.014-4.288 9.692h-.52c-.009-.01-.02-.017-.033-.02a.1.1 0 0 0-.023-.007.3.3 0 0 1-.048-.02l-.039-.02a.27.27 0 0 1-.058.02.23.23 0 0 0-.057.02c-.019.001-.039.003-.058.007a.6.6 0 0 0-.072.019h-.518l1.722-3.515-2.649-6.187h.519a1.07 1.07 0 0 0 .182.058m6.678 1.968a3.19 3.19 0 0 1 .68-1.115 2.86 2.86 0 0 1 1.07-.742 3.74 3.74 0 0 1 1.381-.243l.518-.014a3.56 3.56 0 0 1 1.018.158c.283.087.545.229.772.419a4.3 4.3 0 0 1 .545.576 3.31 3.31 0 0 1 .389.642 3.23 3.23 0 0 1 .168.439 4.1 4.1 0 0 1 .1.426l.058.375a2.2 2.2 0 0 1 .021.281l-.007.243a2.01 2.01 0 0 1-.032.256 1.72 1.72 0 0 1-.047.256l-.07.256a3.31 3.31 0 0 1-.377.787 3.88 3.88 0 0 1-.608.721c-.253.225-.551.393-.875.493a3.81 3.81 0 0 1-1.16.165h-.714a3.68 3.68 0 0 1-1.29-.209 2.45 2.45 0 0 1-.968-.643 2.94 2.94 0 0 1-.6-.962 3.24 3.24 0 0 1-.2-1.148v-.026a4.1 4.1 0 0 1 .227-1.389m1.525 1.716l.026.288c.009.105.039.212.065.321a2.2 2.2 0 0 0 .116.348 2.44 2.44 0 0 0 .234.458 2.2 2.2 0 0 0 .35.42 1.26 1.26 0 0 0 .4.269 1.98 1.98 0 0 0 .511.138 1.66 1.66 0 0 0 .609-.218 1.9 1.9 0 0 0 .506-.452 2.6 2.6 0 0 0 .434-.865c.236-.759.265-1.568.084-2.342a3.18 3.18 0 0 0-.352-.9 1.54 1.54 0 0 0-.506-.524 1.75 1.75 0 0 0-.7-.236 1.65 1.65 0 0 0-.7.257 1.76 1.76 0 0 0-.532.557 3.6 3.6 0 0 0-.4.86 3.81 3.81 0 0 0-.167.949v.4a.13.13 0 0 0 .013.058l-.518-.013v-.012h.518a2.06 2.06 0 0 0 .014.236m6.518-3.743h.519c.039.023.08.043.123.057s.09.027.136.035h.077a1.46 1.46 0 0 0 .15-.033l.124-.033.519-.014v3.7a3.22 3.22 0 0 0 .091.788 2.95 2.95 0 0 0 .259.681 1.32 1.32 0 0 0 .358.406 1.19 1.19 0 0 0 .5.209 1.57 1.57 0 0 0 .576-.169c.156-.083.287-.205.382-.354.103-.156.186-.324.247-.5a2.35 2.35 0 0 0 .117-.551v-.027a.29.29 0 0 1 .012-.039v-.2-3.955h.519c.005.013.015.025.027.033l.03.015h.035c.017.008.035.013.054.013h.034a.1.1 0 0 1 .044.006l.017.006.025.014h.074l.136-.033.123-.034.519-.013v6.281h-.518l-.11-.006c-.039 0-.079-.011-.124-.021h-.051a1.21 1.21 0 0 1-.157.02l-.156.007h-.519v-.288a1.17 1.17 0 0 1-.181.131.79.79 0 0 1-.194.078 5.52 5.52 0 0 1-.6.131 3.98 3.98 0 0 1-.654.054h-.52a2.91 2.91 0 0 1-.842-.105c-.215-.059-.411-.171-.571-.326a2.28 2.28 0 0 1-.337-.466 2.05 2.05 0 0 1-.2-.518c-.008-.044-.021-.085-.032-.125a.36.36 0 0 1-.021-.123c-.01-.039-.016-.078-.019-.118q-.006-.067-.006-.119a2.06 2.06 0 0 1-.014-.236v-.232z" fill="#6d6e6e"/><path d="M36.597 19.729l5.692-.013.017 3.8c.01.758.164 1.518 1.03 1.518 1.09 0 1.126-1.229 1.125-2.148l-.006-.993c-.013-4.324-7.892-3.746-7.905-10.484v-1.323c-.012-4.3 2.6-5.853 6.643-5.863 5.692-.014 6.734 2.623 6.741 5.17v2.2l-5.464.015-.007-1.947c0-1.48-.669-1.685-1.2-1.684-.6.007-1.032.369-1.023 1.552v1.032c.007 3.429 8.094 3.384 8.11 10.317v1.851c.011 4.778-2.866 6.041-7.113 6.053-5.792.01-6.629-2.758-6.637-6.126zm15.078-15.03l5.89-.015.016 5.716h.062a4.14 4.14 0 0 1 3.574-1.994c2.49 0 4.018 1.613 4.023 5.144l.041 14.693-5.9.011-.028-14.488c0-.6-.175-1.391-.937-1.39-.793 0-.827.828-.827 1.424l.037 14.462-5.9.01zm15.351 4.192l5.7-.006v2.472h.075c.529-1.614 1.944-2.777 3.631-2.981l.018 7.034-1-.066a2.35 2.35 0 0 0-1.838.698c-.481.49-.723 1.167-.662 1.851l.019 10.339-5.913.011zm10.269-.019l5.889-.019.052 19.353-5.892.013zm-.011-4.228l5.9-.017v2.972l-5.888.015zm7.523 4.209l5.71-.018v2.477h.068a4.38 4.38 0 0 1 3.631-2.981l.016 7.037-1-.066c-.686-.045-1.357.21-1.84.7s-.728 1.164-.673 1.849l.031 10.339-5.9.013zm15.775 13.039c.001-1.263.735-2.412 1.881-2.943l.009 5.053a.95.95 0 0 1-1.492.831.95.95 0 0 1-.398-.924zm7.769-7.878c-.018-4.49-2.594-5.7-6.772-5.693-4.443.009-6.5 1.664-6.487 5.919l.009 2.052 5.473-.019-.016-3.826c0-.595.225-1.157.89-1.157a1.06 1.06 0 0 1 1.006 1.156v2.446c0 1.119-.3 1.453-3.61 2.71-3.6 1.331-3.735 2.126-3.734 4.336l.009 2.608c.011 2.444 1.332 4.125 3.848 4.119a5.3 5.3 0 0 0 3.716-1.591v1.089l5.693-.015zm1.615-5.214l5.9-.016v1.483h.063a3.13 3.13 0 0 1 1.525-1.454 4.4 4.4 0 0 1 2.048-.533 3.98 3.98 0 0 1 3.521 2.212 5.3 5.3 0 0 1 3.868-2.225c2.479-.006 4 1.612 4.019 5.144l.034 14.692-5.905.014-.021-14.5c-.007-.595-.172-1.381-.937-1.38s-.784.823-.784 1.418l.027 14.463-5.7.009-.027-14.493c0-.593-.167-1.383-.9-1.383-.794 0-.827.826-.827 1.424l.029 14.461-5.891.012zM39.188 31.481h.475c.473 0 .648.219.656.635v1.426c0 .414-.183.636-.656.636h-.464zm-2.61 8.756l2.636-.007-.014-4.285 1.181-.006c1.683 0 2.239-1.022 2.238-2.537v-1.295a2.19 2.19 0 0 0-2.5-2.4l-3.558.01zm10.809-8.638l2.547-.006v1.1h.034c.237-.72.87-1.238 1.623-1.329v3.135l-.444-.029a1.05 1.05 0 0 0-1.115 1.14l.012 4.611h-2.638zm11.599 1.719c0-.293.147-.58.476-.58s.467.282.468.576v4.565c0 .3-.134.574-.464.574s-.476-.274-.476-.573zm-2.625 4.053c.009 2.239 1.66 2.852 3.111 2.846s3.1-.622 3.1-2.856L62.565 34c-.012-2.239-1.663-2.856-3.112-2.855s-3.1.626-3.095 2.871zm13.608-3.942c0-.408.164-.6.468-.6.386 0 .478.235.478.6l.006 4.289c0 .452-.11.737-.464.738-.329 0-.476-.328-.476-.738zm-2.616 7.848l2.627-.012v-2h.029a2.1 2.1 0 0 0 1.685.949c1.73 0 1.864-1.618 1.863-2.977l-.011-3.4c0-1.5-.284-2.7-1.791-2.694-.707.044-1.36.391-1.792.952v-.719h-2.629zm13.6-7.982c0-.344.064-.567.4-.567.371 0 .455.282.462.6v1.061h-.858zm-2.616 4.066c0 2.239 1.651 2.853 3.1 2.852a2.64 2.64 0 0 0 2.921-2.862v-.886l-2.545.007v1.544c0 .324-.084.606-.455.606-.324 0-.4-.22-.4-.56v-2.251l3.4-.01V33.99a2.73 2.73 0 0 0-2.927-2.855c-1.452.01-3.1.631-3.1 2.871zm10.79-5.783l2.545-.006v1.1h.029a1.95 1.95 0 0 1 1.621-1.326v3.139a3.3 3.3 0 0 0-.44-.033 1.04 1.04 0 0 0-.821.31c-.215.219-.322.522-.294.827V40.2h-2.622zm8.965-.002h.55l-.007-1.326 2.725-.008v1.331h.7v1.413h-.7l.01 5.448c.01.252.1.355.327.355h.372l.007 1.41h-1.451c-1.778.007-1.973-.684-1.973-2.021l-.01-5.187h-.545zm8.749-.007l2.635-.006.018 8.63-2.628.008zm0-1.886h2.635v1.326h-2.635zm10.045 3.588c-.009-.338.076-.561.4-.561.385 0 .47.279.471.6v1.061h-.859zm-2.617 4.072c.015 2.239 1.657 2.852 3.108 2.846a2.63 2.63 0 0 0 2.921-2.86v-.883h-2.544v1.551c0 .323-.082.605-.457.605-.323 0-.406-.22-.406-.564v-2.25l3.4-.008v-1.812a2.73 2.73 0 0 0-.821-2.086c-.56-.546-1.327-.824-2.107-.765-1.451 0-3.094.626-3.092 2.87zm10.795-.479h2.441v1.171a.43.43 0 0 0 .431.476.46.46 0 0 0 .47-.506v-.436c-.01-1.334-3.273-1.059-3.274-3.75-.01-1.146.259-2.7 2.922-2.706 1.1 0 2.771.427 2.772 2.193l.008.81h-2.439v-.812c0-.364-.148-.513-.407-.513-.24 0-.423.119-.422.52l.009.333c0 .532.878.83 2.024 1.475a2.41 2.41 0 0 1 1.35 2.559c0 1.916-1.239 2.5-3.108 2.5-1.695.007-2.768-.536-2.775-2.379z" fill="#0070ab" fill-rule="evenodd"/><path d="M32.642 38.338l-.955-7.387-3.5.363c.23-.527.278-1.117.135-1.674l.237-.319.717-7.878c.157-.553.082-1.146-.209-1.642s-.772-.851-1.331-.984l-6.652-3.081a1.94 1.94 0 0 1 .819-1.9c.272-.045.436-.414.536-.994-.042-1.322-.537-1.321-.593-1.59a1.39 1.39 0 0 1 .492-1.223c.601-.534.833-1.371.594-2.139-1.17-1.852-2.258-.951-2.58-1.034-.251-.096-.45-.294-.546-.545-.626-1.354-3.034-1.992-4.746-1.991-1.495-.106-2.953.499-3.934 1.633a3.45 3.45 0 0 0-1 4.484c.114.34.114.709 0 1.049-.278.241-.601.424-.95.538-.722-1.415-1.37-2.866-1.943-4.348a5.5 5.5 0 0 1 .176-1.4 2.27 2.27 0 0 0-.085-1.363c-.245-1.177-.551-2.34-.916-3.486C6.096.298 5.73-.114 5.279.022c-.674 0-.866.814-.815 1.995-.53.113-.997.421-1.309.864a.9.9 0 0 0-1.183.41c-.542-.133-.947.184-1.213.721a1.89 1.89 0 0 0 .859 2.038c-.277.626.086 1.448.811 2.447 0 .088-.088.171-.177.267l-.4.368 1.635 6.208 1.085 6.747a7.71 7.71 0 0 1 0 2.173l-1.359 8.248c.5.505 2.673 1.085 5.341 1.678l.182 1.444-5.344 1.312c-.352.184-.312.991.182 1.042l9.912-1 .36-1.487c.118-.137.287-.22.467-.229s.357.055.489.179l1.131 3.392 7.61 2a.8.8 0 0 0 .949-1.279zm-22.9-3.33l-.1-1.18.772-.045.128 1.173zm9.678 1.4v-1.262a5.8 5.8 0 0 0 1-.505c.306.011.584.183.73.452l.448 2.528c-.77-.267-1.535-.94-2.175-1.214" fill="#201a18" fill-rule="evenodd"/><path d="M18.151 10.352a.53.53 0 0 1 .539.558.52.52 0 0 1-.537.538c-.146.007-.288-.047-.392-.149s-.162-.243-.159-.389c-.007-.148.049-.293.153-.399s.248-.164.396-.159m-3.72-2.792a2.1 2.1 0 0 0 1.814-.187 1.74 1.74 0 0 0 .86.217c.955-.217 1.809-.4 2.4.313.051.114.05.245 0 .359s-.148.202-.267.241c-1.222-.365-1.716 0-2.35 1.082.041.275.442.088.9-.252a.89.89 0 0 1 .908-.382l1.267.231c.361 0 .682.453.631 1.084.053 1.451-.358 2.771-.208 5.3a1.08 1.08 0 0 1-.418 1l-3.934.808a2.9 2.9 0 0 1-1.318-.084 12.3 12.3 0 0 1-2.669-.941 1.9 1.9 0 0 1-.865-1.82c.176-.788.267-1.593.273-2.4l-.223-2.89c.091-.824.408-1.368 1.222-1.369.17.115.272.306.274.511a4 4 0 0 0-.542 1.033c-.049.319.27.494.543.228a.9.9 0 0 1 1.265-.454c.508.347.813.922.816 1.537l-.094 1.767c0 .278.047.462.276.551a.4.4 0 0 1 .084.446c-.179.172-.425.257-.672.232a3.63 3.63 0 0 1-1.506-.859c-.167-.275-.484 0-.391.265l.811.771c.492.448.812 1.809 2.493 1.808 1.669.094 1.982-1.077 2.391-1.628a5.07 5.07 0 0 1 .641-.856c.232-.02.437-.157.544-.363-.1-.229-.33-.448-.545-.368-.143 0-.1.093-.227.229l-.23.4c-1.358.912-1.9.772-2.085.229l.5-.493c.136-.322-.083-.449-.276-.369-.589.37-1.13.369-1.362-.264.095-.662.143-1.331.142-2-.177-.803-.686-1.493-1.4-1.9-.315-.233-.175-.95.537-.764m-1.09 2.94c.202-.012.395.089.499.262s.105.391 0 .564-.297.274-.499.262c-.3 0-.544-.244-.544-.544s.244-.544.544-.544m1.4 3.618h2.305c.185 0 .27.1.24.275-.206.591-.787.967-1.411.91-.547.052-1.08-.191-1.4-.637-.28-.361-.142-.546.268-.546m2.176 3.674c.904-.17 1.795-.401 2.667-.691.318-.129.635-.04.581.332-.278.836-.703 1.615-1.256 2.3-.312.369-.673.37-1.134 0-.499-.393-.914-.884-1.218-1.442-.052-.367.093-.539.36-.5m-2.443.1c-.741-.233-1.469-.507-2.179-.821-.305-.14-.671 0-.538.546a3.92 3.92 0 0 0 1.406 2.172c.318.276.228.178.594 0 .443-.369.797-.834 1.036-1.359.089-.363 0-.5-.318-.539M5.475 2.342a12.63 12.63 0 0 1-.331-1.8c0-.415.18-.548.6-.369.326.76.525 1.568.587 2.393zm-.73-.349c-.4-.051-.631.073-.771.533a2.39 2.39 0 0 0 .548 2c.275.173.408.08.492-.239-.246-.74-.338-1.523-.269-2.3M3.3 2.698c-.5-.175-.674.106-.721.554-.047 1.309.542 1.9 1.221 1.273a4.26 4.26 0 0 1-.5-1.827m-1.364.68c-.31-.125-.4.049-.451.363-.039.96.5 1.683.91 1.23a4.5 4.5 0 0 1-.459-1.593m1.863 1.68c.315-.271.449-.088.583.272.062.324.239.615.5.818.223.215.434.441.633.678.102-.028.184-.104.22-.203s.022-.21-.038-.297c-.553-.4-.64-.541-.594-1.085.041-.365.368-.546.859-.685a1.7 1.7 0 0 1-.586-1.213c.042-.324.4-.418.674-.189.322.188.546.542.9 1.5a1.5 1.5 0 0 1 .093 1c-.268 1.583-1.625 2.085-2.572 1.493-.281.379-.779.528-1.222.365-.593-.289-.925-.933-.818-1.584-.077-.263.06-.541.316-.64.354-.047.703-.123 1.044-.228m20.16 26.948l7.168-.544.676 5.433-7.025 1zm-2.439.132l1.719-.085.72 5.841c-.557.214-1.178.183-1.711-.085zm1.452-2.491a2.16 2.16 0 0 1 .862-1.991 1 1 0 0 1 1.212.045c.336-.032.668.084.911.318a1 1 0 0 1 .813.322c.728.268 1.227.267 1.089 1.26-.098.36-.325.671-.637.875-.406.394-.9.441-.988-.058l-.822.589c-.774.1-.547-.588-.594-1.215-.181-.864-.674-.954-.861-.5-.09.865-.85.946-.985.356" fill="#fff" fill-rule="evenodd"/></svg>