<svg xmlns="http://www.w3.org/2000/svg" width="1338.77" height="512.135" viewBox="0 0 1338.77 512.135">
  <g id="Group_2333" data-name="Group 2333" transform="translate(-339.059 -5586.901)">
    <path id="Path_2204" data-name="Path 2204" d="M229.933,2911.1l162.919-41.233,161.913-3.52,161.41-46.261,160.907-136.772,162.416-6.536,160.908-42.239,161.41,3.521" transform="translate(255.602 3035.565)" fill="none" stroke="#1a1818" stroke-width="2"/>
    <ellipse id="Ellipse_19" data-name="Ellipse 19" cx="7.999" cy="7.999" rx="7.999" ry="7.999" transform="translate(479.524 5937.203)" fill="#e7641e"/>
    <ellipse id="Ellipse_20" data-name="Ellipse 20" cx="7.999" cy="7.999" rx="7.999" ry="7.999" transform="translate(640.969 5897.702)" fill="#e7641e"/>
    <ellipse id="Ellipse_21" data-name="Ellipse 21" cx="7.999" cy="7.999" rx="7.999" ry="7.999" transform="translate(802.345 5893.281)" fill="#e7641e"/>
    <ellipse id="Ellipse_22" data-name="Ellipse 22" cx="7.999" cy="7.999" rx="7.999" ry="7.999" transform="translate(963.948 5847.158)" fill="#e7641e"/>
    <ellipse id="Ellipse_23" data-name="Ellipse 23" cx="7.999" cy="7.999" rx="7.999" ry="7.999" transform="translate(1125.266 5711.307)" fill="#e7641e"/>
    <ellipse id="Ellipse_24" data-name="Ellipse 24" cx="7.999" cy="7.999" rx="7.999" ry="7.999" transform="translate(1286.059 5703.309)" fill="#e7641e"/>
    <ellipse id="Ellipse_25" data-name="Ellipse 25" cx="7.999" cy="7.999" rx="7.999" ry="7.999" transform="translate(1447.644 5662.106)" fill="#e7641e"/>
    <text id="_98" data-name="98" transform="translate(1440.356 5635.473)" fill="#1a1818" font-size="27" font-family="MontserratRoman-Bold, Montserrat" font-weight="700"><tspan x="0" y="0">98</tspan></text>
    <text id="_94" data-name="94" transform="translate(1281.368 5752.08)" fill="#1a1818" font-size="26" font-family="MontserratRoman-Bold, Montserrat" font-weight="700"><tspan x="0" y="0">94</tspan></text>
    <text id="_93" data-name="93" transform="translate(1122.38 5783.394)" fill="#1a1818" font-size="29" font-family="MontserratRoman-Bold, Montserrat" font-weight="700"><tspan x="0" y="0">93</tspan></text>
    <text id="_80" data-name="80" transform="translate(956.859 5818.87)" fill="#1a1818" font-size="26" font-family="MontserratRoman-Bold, Montserrat" font-weight="700"><tspan x="0" y="0">80</tspan></text>
    <text id="_75" data-name="75" transform="translate(792.791 5866.528)" fill="#1a1818" font-size="27" font-family="MontserratRoman-Bold, Montserrat" font-weight="700"><tspan x="0" y="0">75</tspan></text>
    <text id="_75-2" data-name="75" transform="translate(633.077 5870.157)" fill="#1a1818" font-size="27" font-family="MontserratRoman-Bold, Montserrat" font-weight="700"><tspan x="0" y="0">75</tspan></text>
    <text id="_71" data-name="71" transform="translate(469.734 5910.621)" fill="#1a1818" font-size="28" font-family="MontserratRoman-Bold, Montserrat" font-weight="700"><tspan x="0" y="0">71</tspan></text>
    <text id="_100" data-name="100" transform="translate(339.059 5645.087)" fill="#1a1818" font-size="21" font-family="MontserratRoman-Bold, Montserrat" font-weight="700"><tspan x="0" y="0">100</tspan></text>
    <text id="_90" data-name="90" transform="translate(352.853 5743.819)" fill="#1a1818" font-size="21" font-family="MontserratRoman-Bold, Montserrat" font-weight="700"><tspan x="0" y="0">90</tspan></text>
    <text id="_80-2" data-name="80" transform="translate(352.853 5854.893)" fill="#1a1818" font-size="21" font-family="MontserratRoman-Bold, Montserrat" font-weight="700"><tspan x="0" y="0">80</tspan></text>
    <text id="_70" data-name="70" transform="translate(352.854 5948.568)" fill="#1a1818" font-size="20" font-family="MontserratRoman-Bold, Montserrat" font-weight="700"><tspan x="0" y="0">70</tspan></text>
    <text id="_60" data-name="60" transform="translate(352.852 6049.707)" fill="#1a1818" font-size="21" font-family="MontserratRoman-Bold, Montserrat" font-weight="700"><tspan x="0" y="0">60</tspan></text>
    <text id="_2015" data-name="2015" transform="translate(457.392 6094.036)" fill="#1a1818" font-size="21" font-family="MontserratRoman-Bold, Montserrat" font-weight="700"><tspan x="0" y="0">2015</tspan></text>
    <text id="_2016" data-name="2016" transform="translate(618.557 6094.036)" fill="#1a1818" font-size="21" font-family="MontserratRoman-Bold, Montserrat" font-weight="700"><tspan x="0" y="0">2016</tspan></text>
    <text id="_2017" data-name="2017" transform="translate(776.818 6094.036)" fill="#1a1818" font-size="21" font-family="MontserratRoman-Bold, Montserrat" font-weight="700"><tspan x="0" y="0">2017</tspan></text>
    <text id="_2018" data-name="2018" transform="translate(940.889 6093.036)" fill="#1a1818" font-size="20" font-family="MontserratRoman-Bold, Montserrat" font-weight="700"><tspan x="0" y="0">2018</tspan></text>
    <text id="_2019" data-name="2019" transform="translate(1100.602 6094.036)" fill="#1a1818" font-size="21" font-family="MontserratRoman-Bold, Montserrat" font-weight="700"><tspan x="0" y="0">2019</tspan></text>
    <text id="_2020" data-name="2020" transform="translate(1262.797 6094.036)" fill="#1a1818" font-size="21" font-family="MontserratRoman-Bold, Montserrat" font-weight="700"><tspan x="0" y="0">2020</tspan></text>
    <text id="_2021" data-name="2021" transform="translate(1423.963 6094.036)" fill="#1a1818" font-size="21" font-family="MontserratRoman-Bold, Montserrat" font-weight="700"><tspan x="0" y="0">2021</tspan></text>
    <text id="H2_2022" data-name="H2 2022" transform="translate(1565.526 6094.036)" fill="#1a1818" font-size="21" font-family="MontserratRoman-Bold, Montserrat" font-weight="700"><tspan x="0" y="0">H2 2022</tspan></text>
    <line id="Line_3" data-name="Line 3" x2="1263.244" transform="translate(414.584 6061.338)" fill="none" stroke="#1a1818" stroke-width="1" opacity="0.22"/>
    <line id="Line_4" data-name="Line 4" y2="466.745" transform="translate(414.584 5620.554)" fill="none" stroke="#1a1818" stroke-width="1" opacity="0.22"/>
    <ellipse id="Ellipse_26" data-name="Ellipse 26" cx="7.999" cy="7.999" rx="7.999" ry="7.999" transform="translate(1609.42 5665.435)" fill="#e7641e"/>
    <circle id="Ellipse_27" data-name="Ellipse 27" cx="33.653" cy="33.653" r="33.653" transform="translate(1583.764 5586.901)" fill="#e7641e"/>
    <text id="_97" data-name="97" transform="translate(1596.426 5629.622)" fill="#fff" font-size="31" font-family="MontserratRoman-Medium, Montserrat" font-weight="500"><tspan x="0" y="0">97</tspan></text>
  </g>
</svg>
