<svg xmlns="http://www.w3.org/2000/svg" width="17.983" height="18.006" viewBox="0 0 17.983 18.006">
  <path id="Icon_zocial-call" data-name="Icon zocial-call" d="M3.3,6.48a1.325,1.325,0,0,1,.337-.719l2.7-2.7q.315-.27.472.09L8.993,7.244a.589.589,0,0,1-.112.7l-.989.989a1.119,1.119,0,0,0-.315.7,3.432,3.432,0,0,0,.7,1.731,14.783,14.783,0,0,0,1.371,1.8l.7.719c.21.21.479.469.81.776a13.573,13.573,0,0,0,1.629,1.214,3.647,3.647,0,0,0,1.787.753.979.979,0,0,0,.719-.292l1.17-1.169a.494.494,0,0,1,.674-.09l3.935,2.316a.329.329,0,0,1,.18.236.287.287,0,0,1-.09.259l-2.7,2.7a1.321,1.321,0,0,1-.719.337,5.439,5.439,0,0,1-2.485-.3,11.243,11.243,0,0,1-2.562-1.225q-1.18-.764-2.192-1.551T8.882,16.484L8.3,15.922q-.224-.224-.6-.618T6.408,13.753a22.579,22.579,0,0,1-1.6-2.259A13.181,13.181,0,0,1,3.642,8.987,5.333,5.333,0,0,1,3.3,6.48Z" transform="translate(-3.267 -2.947)" fill="#fff"/>
</svg>
