<svg xmlns="http://www.w3.org/2000/svg" width="130.948" height="59.3" viewBox="0 0 130.948 59.3">
  <g id="Group_2342" data-name="Group 2342" transform="translate(0 0)">
    <path id="Path_1162" data-name="Path 1162" d="M36.893,80.519q-.033-.832-.072-1.7c.113.018.221.033.326.046a2.482,2.482,0,0,0,.31.02,2.546,2.546,0,0,0,.311-.019c.1-.014.211-.029.324-.048q-.039.867-.07,1.7t-.031,1.7v2.255c0,.578.011,1.145.034,1.706s.046,1.109.072,1.651c-.2-.018-.411-.026-.635-.026s-.438.009-.637.027c.026-.543.05-1.092.07-1.652s.033-1.128.032-1.706V83.291q-.7-.013-1.354-.019t-1.357-.006q-.7,0-1.355.008c-.437,0-.888.01-1.356.02v1.179q0,.867.034,1.706t.073,1.652c-.2-.018-.412-.027-.636-.027s-.436.01-.635.028q.037-.815.071-1.653t.031-1.7V82.219c0-.577-.012-1.144-.033-1.7s-.047-1.122-.072-1.7c.111.018.22.033.324.047a2.705,2.705,0,0,0,.311.02,2.391,2.391,0,0,0,.312-.021c.1-.013.21-.028.322-.047q-.039.867-.069,1.7t-.032,1.7v.459l1.356.026c.437.008.887.012,1.355.012s.92,0,1.356-.013l1.356-.028v-.459c0-.577-.011-1.143-.033-1.7" transform="translate(-30.336 -31.859)" fill="#241918"/>
    <path id="Path_1163" data-name="Path 1163" d="M40.078,83.242a2.8,2.8,0,0,1,.732-1.011,2.886,2.886,0,0,1,1.017-.564,3.671,3.671,0,0,1,2.252,0,2.937,2.937,0,0,1,1.012.563,2.814,2.814,0,0,1,.733,1.01,4.249,4.249,0,0,1,0,3.029,2.8,2.8,0,0,1-.731,1.011,2.657,2.657,0,0,1-1.011.544,4.113,4.113,0,0,1-2.252,0,2.644,2.644,0,0,1-1.019-.543,2.823,2.823,0,0,1-.732-1.01,4.242,4.242,0,0,1,0-3.029m.961,2.576a2.828,2.828,0,0,0,.331.911,1.789,1.789,0,0,0,.622.636,2.069,2.069,0,0,0,1.921,0,1.787,1.787,0,0,0,.621-.636,2.868,2.868,0,0,0,.331-.911,5.813,5.813,0,0,0,.1-1.063,5.623,5.623,0,0,0-.1-1.061,2.852,2.852,0,0,0-.332-.911,1.765,1.765,0,0,0-.622-.636,2.067,2.067,0,0,0-1.92,0,1.781,1.781,0,0,0-.622.636,2.869,2.869,0,0,0-.331.911,5.724,5.724,0,0,0-.1,1.062,5.625,5.625,0,0,0,.1,1.062" transform="translate(-30.421 -31.883)" fill="#241918"/>
    <path id="Path_1164" data-name="Path 1164" d="M47.619,82.832c-.014-.433-.042-.836-.084-1.213a3.362,3.362,0,0,0,.583.065,1.478,1.478,0,0,0,.228-.02l.291-.047c-.026.35-.04.7-.039,1.048h.027a2.128,2.128,0,0,1,1.925-1.18,2.065,2.065,0,0,1,.635.1,2.183,2.183,0,0,1,.563.268,1.84,1.84,0,0,1,.433.412,1.4,1.4,0,0,1,.245.518h.027a2.235,2.235,0,0,1,2.094-1.3,2.6,2.6,0,0,1,.793.117,1.613,1.613,0,0,1,1.048,1.009,2.685,2.685,0,0,1,.15.945c0,.148,0,.309-.012.485s-.017.379-.026.609-.017.495-.026.788-.013.63-.012,1.016c0,.236,0,.463.006.682s.016.454.034.708a1.733,1.733,0,0,0-.287-.027h-.556a1.616,1.616,0,0,0-.284.027q.037-.327.082-1.325t.045-2.78a2.506,2.506,0,0,0-.072-.615,1.342,1.342,0,0,0-.229-.5,1.1,1.1,0,0,0-.415-.334,1.511,1.511,0,0,0-.653-.125,1.572,1.572,0,0,0-1.3.617,1.422,1.422,0,0,0-.161.287,1.714,1.714,0,0,0-.092.44c-.021.2-.037.473-.044.826s-.015.841-.014,1.462c0,.377.007.719.021,1.029s.028.65.046,1.017c-.2-.018-.385-.026-.565-.027s-.367.01-.563.028q.056-.721.078-1.469t.024-1.468c0-.411,0-.733-.007-.965s-.016-.415-.033-.551a1.851,1.851,0,0,0-.07-.333,2.745,2.745,0,0,0-.124-.288,1.173,1.173,0,0,0-.446-.426,1.216,1.216,0,0,0-.625-.177A1.431,1.431,0,0,0,49,82.733a2.711,2.711,0,0,0-.4,1.587v1.115c0,.392.007.806.022,1.239s.042.824.084,1.173q-.3-.025-.584-.026c-.191,0-.385.009-.584.027q.064-.525.083-1.174t.02-1.239V84.071q0-.592-.022-1.24" transform="translate(-30.491 -31.883)" fill="#241918"/>
    <path id="Path_1165" data-name="Path 1165" d="M58.737,82.4a2.709,2.709,0,0,1,2.211-.92,3,3,0,0,1,1.186.217,2.486,2.486,0,0,1,.837.576,2.3,2.3,0,0,1,.5.845,3.283,3.283,0,0,1,.164,1.037c0,.087,0,.171-.009.256s-.009.167-.018.256c-.468-.009-.93-.017-1.387-.027s-.921-.011-1.388-.012c-.286,0-.568.006-.849.014s-.565.019-.849.027a1.076,1.076,0,0,0-.013.2v.17a2.977,2.977,0,0,0,.15.957,2.173,2.173,0,0,0,.434.767,2.1,2.1,0,0,0,.7.511,2.289,2.289,0,0,0,.961.189,2.056,2.056,0,0,0,.531-.072,3.041,3.041,0,0,0,.531-.2,2.872,2.872,0,0,0,.486-.3,2.468,2.468,0,0,0,.4-.367l.065.039-.077.642a3.549,3.549,0,0,1-.966.539,3.3,3.3,0,0,1-1.2.223,3.577,3.577,0,0,1-1.277-.216,2.8,2.8,0,0,1-1.649-1.6,3.25,3.25,0,0,1-.228-1.22,3.858,3.858,0,0,1,.758-2.531m1.427-.276a1.927,1.927,0,0,0-.545.559,2.674,2.674,0,0,0-.324.733,3.914,3.914,0,0,0-.135.754L60,84.2c.29.009.575.013.85.013s.574,0,.869-.014l.855-.026a5.014,5.014,0,0,0-.059-.748,2.335,2.335,0,0,0-.233-.733,1.571,1.571,0,0,0-.487-.564,1.365,1.365,0,0,0-.818-.222,1.414,1.414,0,0,0-.81.222" transform="translate(-30.585 -31.883)" fill="#241918"/>
    <path id="Path_1166" data-name="Path 1166" d="M65.194,86.907a1.882,1.882,0,0,0,.325.3,1.791,1.791,0,0,0,.427.23,1.413,1.413,0,0,0,.513.09,1.469,1.469,0,0,0,.474-.077,1.332,1.332,0,0,0,.4-.224,1.031,1.031,0,0,0,.278-.368,1.193,1.193,0,0,0,.1-.511.822.822,0,0,0-.228-.622,1.77,1.77,0,0,0-.565-.354,6.2,6.2,0,0,0-.738-.243,3.064,3.064,0,0,1-.739-.294,1.745,1.745,0,0,1-.565-.5,1.458,1.458,0,0,1-.228-.865,2.138,2.138,0,0,1,.142-.794,1.783,1.783,0,0,1,.415-.622,1.935,1.935,0,0,1,.675-.413,2.613,2.613,0,0,1,.921-.153,2.209,2.209,0,0,1,.81.132c.221.087.43.166.63.236a2.906,2.906,0,0,0-.194.485,3.5,3.5,0,0,0-.118.447h-.155a1.253,1.253,0,0,0-.4-.565,1.118,1.118,0,0,0-.739-.248,1.217,1.217,0,0,0-.389.065,1.087,1.087,0,0,0-.35.2,1.048,1.048,0,0,0-.259.341,1.092,1.092,0,0,0-.1.5.877.877,0,0,0,.227.648,1.594,1.594,0,0,0,.565.361,5.921,5.921,0,0,0,.739.229,3.333,3.333,0,0,1,.738.275,1.6,1.6,0,0,1,.565.493,1.449,1.449,0,0,1,.228.865,1.816,1.816,0,0,1-.162.747,2.128,2.128,0,0,1-1.2,1.122,2.712,2.712,0,0,1-.973.164,3.637,3.637,0,0,1-1-.117,3.165,3.165,0,0,1-.674-.275,3.234,3.234,0,0,0,.163-.465,1.9,1.9,0,0,0,.085-.492h.155a1.372,1.372,0,0,0,.2.288" transform="translate(-30.644 -31.883)" fill="#241918"/>
    <path id="Path_1167" data-name="Path 1167" d="M74.961,79.833c-.026.333-.046.658-.058.977s-.028.64-.044.964c.094,0,.272,0,.531-.007s.539-.016.843-.034a.511.511,0,0,0-.014.145v.275a.41.41,0,0,0,.015.132c-.113-.009-.23-.016-.352-.02s-.251-.007-.388-.007h-.636c-.008.035-.02.174-.032.42s-.024.534-.033.871-.014.689-.019,1.056-.006.695-.006.983c0,.245.006.485.021.721a2.134,2.134,0,0,0,.123.635,1.045,1.045,0,0,0,.312.453.916.916,0,0,0,.595.169,1.955,1.955,0,0,0,.28-.027,2.023,2.023,0,0,0,.3-.065v.315c-.148.027-.31.058-.487.1a2.348,2.348,0,0,1-.513.059,1.6,1.6,0,0,1-1.205-.406,1.658,1.658,0,0,1-.39-1.192c0-.236,0-.493.012-.767s.021-.577.033-.906.024-.69.032-1.088.014-.84.013-1.331h-.415c-.069,0-.143,0-.22.007s-.161.01-.246.02c.007-.053.015-.1.018-.152a1.465,1.465,0,0,0,.007-.151,1.188,1.188,0,0,0-.007-.132c0-.044-.011-.086-.018-.13.387.025.672.039.855.039-.01-.175-.016-.393-.022-.656s-.014-.533-.032-.813l1.076-.46Z" transform="translate(-30.72 -31.868)" fill="#241918"/>
    <path id="Path_1168" data-name="Path 1168" d="M77.523,80.72c0-.349-.012-.695-.021-1.036s-.019-.667-.033-.977-.028-.575-.047-.794a3.511,3.511,0,0,0,.586.066,3.622,3.622,0,0,0,.585-.066c-.019.218-.033.482-.047.787s-.024.627-.032.963-.016.676-.019,1.017-.006.655-.007.943l0,1h.025a2.713,2.713,0,0,1,.872-.872,2.287,2.287,0,0,1,1.209-.309,2.723,2.723,0,0,1,.735.105A1.773,1.773,0,0,1,82,81.9a1.858,1.858,0,0,1,.488.695,2.877,2.877,0,0,1,.189,1.122q0,.563-.025,1.159t-.026,1.266V87c0,.14,0,.277.006.413s.013.264.022.386c-.175-.017-.359-.026-.552-.026a5.322,5.322,0,0,0-.539.027q.025-.682.058-1.4c.02-.48.032-.973.031-1.481v-.8a2.464,2.464,0,0,0-.378-1.488,1.222,1.222,0,0,0-1.038-.5,1.549,1.549,0,0,0-1.328.564,2.608,2.608,0,0,0-.421,1.588c0,.245,0,.529.006.852s.012.649.021.977.019.644.033.95.028.555.047.748c-.2-.018-.393-.027-.585-.027s-.385.009-.584.027c.017-.2.033-.455.045-.761s.024-.629.033-.97.014-.686.019-1.036.006-.673.007-.97l0-2.373c0-.3,0-.62-.007-.97" transform="translate(-30.76 -31.851)" fill="#241918"/>
    <path id="Path_1169" data-name="Path 1169" d="M85.891,81.627a3.308,3.308,0,0,1,1.012-.16,2.57,2.57,0,0,1,.857.138,1.9,1.9,0,0,1,.667.393,1.85,1.85,0,0,1,.434.616,1.956,1.956,0,0,1,.159.793q0,.748-.027,1.487t-.026,1.568c0,.105,0,.216.009.334a1.02,1.02,0,0,0,.057.315.606.606,0,0,0,.152.23.4.4,0,0,0,.29.091,1.329,1.329,0,0,0,.137-.007.313.313,0,0,0,.136-.047v.288a1.4,1.4,0,0,1-.356.105,2.562,2.562,0,0,1-.473.041.83.83,0,0,1-.91-.773,3.461,3.461,0,0,1-.917.695,2.5,2.5,0,0,1-1.112.223,2.253,2.253,0,0,1-.633-.09,1.455,1.455,0,0,1-.549-.3,1.615,1.615,0,0,1-.387-.5,1.493,1.493,0,0,1-.15-.675,1.55,1.55,0,0,1,.484-1.219,2.616,2.616,0,0,1,1.338-.578c.466-.08.828-.148,1.092-.2a2.722,2.722,0,0,0,.582-.177.4.4,0,0,0,.226-.217,1.1,1.1,0,0,0,.039-.321,2.523,2.523,0,0,0-.077-.629,1.482,1.482,0,0,0-.247-.524,1.246,1.246,0,0,0-.441-.36,1.452,1.452,0,0,0-.662-.138,2.021,2.021,0,0,0-.966.237,1.546,1.546,0,0,0-.668.655h-.142v-.682a3.662,3.662,0,0,1,1.075-.6m1.619,3.066c-.193.036-.389.072-.587.113a5.49,5.49,0,0,0-.588.15,1.966,1.966,0,0,0-.516.25,1.113,1.113,0,0,0-.5,1,1.193,1.193,0,0,0,.348.931,1.127,1.127,0,0,0,.776.314,1.563,1.563,0,0,0,.9-.275,2.068,2.068,0,0,0,.625-.642l.051-1.967a3.175,3.175,0,0,1-.51.131" transform="translate(-30.821 -31.883)" fill="#241918"/>
    <path id="Path_1170" data-name="Path 1170" d="M92.419,79.824q-.039.5-.057.977t-.046.964c.1,0,.273,0,.532-.007s.54-.016.844-.034a.485.485,0,0,0-.014.145v.275a.433.433,0,0,0,.015.131c-.113-.009-.23-.015-.351-.019s-.253-.007-.39-.008h-.634a3.822,3.822,0,0,0-.033.42c-.012.245-.024.534-.032.871s-.015.689-.02,1.056-.006.695,0,.983c0,.245.006.485.02.721a2.134,2.134,0,0,0,.123.635,1.041,1.041,0,0,0,.313.453.911.911,0,0,0,.595.169,1.954,1.954,0,0,0,.28-.027,2,2,0,0,0,.3-.065v.315c-.148.027-.309.058-.487.1a2.4,2.4,0,0,1-.512.058,1.61,1.61,0,0,1-1.207-.405,1.665,1.665,0,0,1-.389-1.193c0-.236,0-.492.013-.767s.02-.577.031-.9.025-.691.033-1.089.014-.84.013-1.33h-.415c-.069,0-.143,0-.22.007s-.16.011-.246.02c.007-.053.014-.1.018-.151a1.249,1.249,0,0,0,.007-.151,1.172,1.172,0,0,0-.006-.132c0-.044-.013-.087-.019-.131.388.026.672.039.855.039q-.013-.263-.021-.655c0-.263-.015-.533-.033-.814l1.077-.46Z" transform="translate(-30.877 -31.868)" fill="#241918"/>
    <path id="Path_1171" data-name="Path 1171" d="M99.255,77.638h.518a.844.844,0,0,0,.15.058c.048.014.093.024.137.034h.027l.141-.034c.053-.013.105-.024.155-.033l.521-.013,0,10.108h-.577a.116.116,0,0,1-.058-.014.325.325,0,0,1-.071-.006.357.357,0,0,0-.058-.007h-.052c-.054.009-.1.016-.156.021s-.1,0-.157,0H99.26Z" transform="translate(-30.956 -31.848)" fill="#6d6e6e"/>
    <path id="Path_1172" data-name="Path 1172" d="M103.247,78.8a.573.573,0,0,1,.155-.222.748.748,0,0,1,.222-.138.661.661,0,0,1,.246-.047l.519-.013a1.086,1.086,0,0,1,.273.058.86.86,0,0,1,.247.138.569.569,0,0,1,.174.229.821.821,0,0,1,.058.321.8.8,0,0,1-.085.321.755.755,0,0,1-.174.231.773.773,0,0,1-.219.138.7.7,0,0,1-.248.045l-.518-.012a.563.563,0,0,1-.253-.033.727.727,0,0,1-.227-.138.609.609,0,0,1-.168-.243.841.841,0,0,1-.053-.308V79.1a.819.819,0,0,1,.052-.3m.053,2.571h.52a.084.084,0,0,0,.025.034l.018.006.013.014h.034a.131.131,0,0,0,.054.012H104a.26.26,0,0,1,.043.007.047.047,0,0,0,.018.006l.025.014h.074c.042-.009.088-.02.137-.033l.122-.034.519-.013,0,6.385h-.519a.872.872,0,0,1-.109-.007c-.039,0-.08-.011-.124-.02h-.052c-.054.009-.1.016-.157.021s-.1.006-.155.006h-.52Z" transform="translate(-30.991 -31.855)" fill="#6d6e6e"/>
    <path id="Path_1173" data-name="Path 1173" d="M108.245,81.5c.043.166.092.336.149.511s.114.358.174.55c.036.1.069.193.1.289l.1.288c.036.1.071.205.111.3s.076.192.11.287.066.175.1.263.063.176.1.263.067.174.1.263.069.169.1.249c.068.165.137.328.207.486s.138.309.207.458a.9.9,0,0,0,.06.124,1.212,1.212,0,0,1,.056.126l.026-.053.027-.054a.609.609,0,0,1,.027-.064c.008-.019.016-.04.025-.065.069-.15.138-.307.208-.473s.142-.337.22-.511c.008-.027.017-.054.026-.078s.018-.054.026-.079.019-.039.033-.065a.738.738,0,0,0,.033-.078c.016-.053.037-.106.057-.159s.041-.105.058-.157c.1-.271.2-.533.3-.787s.186-.5.273-.748.158-.454.214-.628.1-.32.123-.433l.92-.027h.519c-.112.245-.217.482-.317.709s-.2.45-.292.669-.187.438-.277.655-.184.433-.278.643c-.044.1-.084.192-.123.288s-.08.193-.123.289c-.018.043-.038.089-.059.138s-.041.093-.057.138a1.238,1.238,0,0,1-.059.15c-.021.05-.04.094-.056.138-.079.2-.159.406-.24.61s-.167.413-.254.622-.17.42-.252.63-.167.415-.254.615h-.595a.266.266,0,0,1-.079-.013h-.013a.308.308,0,0,0-.07.007.354.354,0,0,1-.059.006h-.519L106.4,81.5h1.843Z" transform="translate(-31.02 -31.883)" fill="#6d6e6e"/>
    <path id="Path_1174" data-name="Path 1174" d="M114.038,83.429a2.556,2.556,0,0,1,.656-1.056,3.106,3.106,0,0,1,.964-.636,2.947,2.947,0,0,1,1.137-.217l.516-.014a3.5,3.5,0,0,1,.975.151,1.9,1.9,0,0,1,.713.4,3.668,3.668,0,0,1,.506.57,2.6,2.6,0,0,1,.324.623c.026.086.052.176.078.268a1.508,1.508,0,0,1,.052.282c.018.087.03.172.039.256s.014.159.015.229v.132a.1.1,0,0,0-.014.053v.052a.738.738,0,0,1-.007.105.358.358,0,0,1-.019.091l-.519-.012-3.877-.011a4.472,4.472,0,0,0,.117,1.075,2.637,2.637,0,0,0,.35.826,1.385,1.385,0,0,0,.585.492,2.356,2.356,0,0,0,.894.2,2.1,2.1,0,0,0,.409-.065,2.314,2.314,0,0,0,.4-.144,2.076,2.076,0,0,0,.46-.257,1.854,1.854,0,0,0,.357-.348l.518-.013.106.708-.027.039-.027.014-.078.053-.077.053a4.4,4.4,0,0,1-.421.262,2.654,2.654,0,0,1-.447.2,2.263,2.263,0,0,1-.552.157,4.46,4.46,0,0,1-.719.054H116.9a4.036,4.036,0,0,1-1.38-.281,2.216,2.216,0,0,1-.928-.7,3.652,3.652,0,0,1-.539-.984,4.068,4.068,0,0,1-.228-1.1V84.9a4.589,4.589,0,0,1,.213-1.475m4.391.693v-.151a.061.061,0,0,1-.013-.02v-.038a2.611,2.611,0,0,0-.111-.684,2.474,2.474,0,0,0-.279-.609,1.054,1.054,0,0,0-.383-.392,1.4,1.4,0,0,0-.576-.184,1.438,1.438,0,0,0-.463.158,1.4,1.4,0,0,0-.382.315,3.3,3.3,0,0,0-.35.511,2.424,2.424,0,0,0-.219.564c-.01.054-.021.105-.034.158s-.024.105-.032.158a.9.9,0,0,0-.013.152v.137l2.853-.028Z" transform="translate(-31.087 -31.883)" fill="#6d6e6e"/>
    <path id="Path_1175" data-name="Path 1175" d="M125.757,78.785a.576.576,0,0,1,.156-.223.787.787,0,0,1,.221-.138.681.681,0,0,1,.246-.047l.519-.013a1.143,1.143,0,0,1,.273.059.849.849,0,0,1,.247.138.561.561,0,0,1,.175.23.763.763,0,0,1-.027.641.8.8,0,0,1-.174.23.748.748,0,0,1-.22.138.678.678,0,0,1-.248.046l-.518-.012a.572.572,0,0,1-.252-.033.72.72,0,0,1-.228-.138.6.6,0,0,1-.168-.244.838.838,0,0,1-.053-.308v-.025a.819.819,0,0,1,.052-.3m.053,2.57h.52a.072.072,0,0,0,.025.033.053.053,0,0,0,.026.007l0,.013h.026a.213.213,0,0,0,.061.013h.051a.1.1,0,0,1,.027.007.049.049,0,0,0,.026.006.106.106,0,0,0,.017.014h.074c.042-.01.089-.02.137-.034l.122-.033.519-.013,0,6.385h-.519a.86.86,0,0,1-.109-.006c-.039,0-.08-.011-.124-.02h-.052c-.054.009-.1.015-.156.02s-.1.007-.155.007h-.521Z" transform="translate(-31.194 -31.855)" fill="#6d6e6e"/>
    <path id="Path_1176" data-name="Path 1176" d="M129.843,81.38h.519a.355.355,0,0,0,.1.046.977.977,0,0,0,.111.033h.05l.006.013h.06c.052-.01.1-.02.15-.034l.123-.033.518-.013V81.9c.077-.06.162-.122.253-.183s.192-.123.3-.184a1.772,1.772,0,0,1,.48-.178,2.822,2.822,0,0,1,.6-.057l.518-.014h.039a2.045,2.045,0,0,1,.719.183,2.368,2.368,0,0,1,.655.458,1.867,1.867,0,0,1,.468.813,4.345,4.345,0,0,1,.158,1.247l0,3.789H135.1a.205.205,0,0,1-.053-.013.376.376,0,0,1-.064-.006.189.189,0,0,0-.052-.007H134.9c-.053.009-.106.015-.162.02s-.119.007-.187.007h-.52l0-3.815a2.53,2.53,0,0,0-.116-.794,1.625,1.625,0,0,0-.338-.584,1.494,1.494,0,0,0-.364-.293,1.292,1.292,0,0,0-.4-.152,1.5,1.5,0,0,0-.447.184,1.8,1.8,0,0,0-.408.354,1.494,1.494,0,0,0-.364.629,2.991,2.991,0,0,0-.115.879l0,3.592h-.519a1.415,1.415,0,0,1-.149-.007,1.132,1.132,0,0,1-.137-.021h-.014a.426.426,0,0,0-.077.008.358.358,0,0,1-.065.007.253.253,0,0,1-.077.013h-.6Z" transform="translate(-31.231 -31.881)" fill="#6d6e6e"/>
    <path id="Path_1177" data-name="Path 1177" d="M141.694,81.539c.058.013.121.024.18.033h.044a.318.318,0,0,1,.039.013l.042-.013h.046c.053-.01.1-.02.15-.034l.122-.033.52-.013c.033.123.086.281.156.478s.156.435.259.715.215.554.332.847.241.592.371.9l.025.058c.009.023.018.043.026.059a.194.194,0,0,0,.014.059c.008.021.017.042.025.058.018.035.035.072.054.112s.033.08.051.124c.027.061.053.124.079.19s.057.133.089.2.053.125.079.19.052.13.077.19a.208.208,0,0,0,.006.033.109.109,0,0,0,.021.033.07.07,0,0,1,.018.033.075.075,0,0,1,.007.033.161.161,0,0,0,.021-.027l.019-.039a.115.115,0,0,1,.006-.033.082.082,0,0,1,.019-.033c.054-.122.109-.252.168-.386s.122-.275.182-.414l.057-.138a1.346,1.346,0,0,0,.059-.15c.017-.045.037-.09.058-.139s.045-.1.07-.151c.122-.306.237-.6.349-.878s.216-.556.312-.827.172-.486.232-.669a3.156,3.156,0,0,0,.117-.42l.518-.013a.726.726,0,0,0,.1.04c.031.009.062.018.1.026.044-.008.08-.018.111-.026l.1-.027.519-.014-4.288,9.692h-.52a.068.068,0,0,0-.033-.02.1.1,0,0,0-.023-.007.3.3,0,0,1-.048-.02l-.039-.02a.271.271,0,0,1-.058.02.229.229,0,0,0-.057.02.435.435,0,0,0-.058.007.6.6,0,0,0-.072.019h-.518l1.722-3.515-2.649-6.187h.519a1.025,1.025,0,0,0,.182.058" transform="translate(-31.331 -31.883)" fill="#6d6e6e"/>
    <path id="Path_1178" data-name="Path 1178" d="M148.446,83.5a3.192,3.192,0,0,1,.68-1.115,2.862,2.862,0,0,1,1.07-.742,3.737,3.737,0,0,1,1.381-.243l.518-.014a3.56,3.56,0,0,1,1.018.158,2.215,2.215,0,0,1,.772.419,4.283,4.283,0,0,1,.545.576,3.315,3.315,0,0,1,.389.642,3.231,3.231,0,0,1,.168.439,4.1,4.1,0,0,1,.1.426c.027.141.046.266.058.375a2.285,2.285,0,0,1,.021.281c0,.079,0,.16-.007.243a1.956,1.956,0,0,1-.032.256,1.794,1.794,0,0,1-.047.256c-.022.083-.045.168-.07.256a3.308,3.308,0,0,1-.377.787,3.864,3.864,0,0,1-.608.721,2.366,2.366,0,0,1-.875.493,3.811,3.811,0,0,1-1.16.165h-.714a3.667,3.667,0,0,1-1.29-.209,2.452,2.452,0,0,1-.968-.643,2.938,2.938,0,0,1-.6-.962,3.24,3.24,0,0,1-.2-1.148v-.026a4.083,4.083,0,0,1,.227-1.389m1.525,1.716c.008.087.017.183.026.288s.039.212.065.321a2.2,2.2,0,0,0,.116.348,2.433,2.433,0,0,0,.234.458,2.194,2.194,0,0,0,.35.42,1.263,1.263,0,0,0,.4.269,1.98,1.98,0,0,0,.511.138,1.676,1.676,0,0,0,.609-.218,1.9,1.9,0,0,0,.506-.452,2.6,2.6,0,0,0,.434-.865,4.463,4.463,0,0,0,.084-2.342,3.178,3.178,0,0,0-.352-.9,1.54,1.54,0,0,0-.506-.524,1.752,1.752,0,0,0-.7-.236,1.654,1.654,0,0,0-.7.257,1.762,1.762,0,0,0-.532.557,3.617,3.617,0,0,0-.4.86,3.811,3.811,0,0,0-.167.949v.4a.137.137,0,0,0,.013.058l-.518-.013v-.012h.518a2.116,2.116,0,0,0,.014.236" transform="translate(-31.396 -31.882)" fill="#6d6e6e"/>
    <path id="Path_1179" data-name="Path 1179" d="M156.568,81.473h.519a.614.614,0,0,0,.123.057.844.844,0,0,0,.136.035h.077a1.462,1.462,0,0,0,.15-.033c.048-.013.089-.025.124-.033l.519-.014v3.7a3.235,3.235,0,0,0,.091.788,2.95,2.95,0,0,0,.259.681,1.319,1.319,0,0,0,.358.406,1.194,1.194,0,0,0,.5.209A1.57,1.57,0,0,0,160,87.1a1.025,1.025,0,0,0,.382-.354,2.224,2.224,0,0,0,.247-.5,2.349,2.349,0,0,0,.117-.551v-.027a.184.184,0,0,1,.012-.039v-.2l0-3.955h.519a.072.072,0,0,0,.027.033.059.059,0,0,0,.018,0l.012.015h.035a.129.129,0,0,0,.054.013h.034a.1.1,0,0,1,.044.006l.017.006.025.014h.074c.044-.009.088-.02.136-.033l.123-.034.519-.013,0,6.281h-.518a1.094,1.094,0,0,1-.11-.006c-.039,0-.079-.011-.124-.021h-.051a1.211,1.211,0,0,1-.157.02c-.053,0-.1.007-.156.007h-.519v-.288a1.17,1.17,0,0,1-.181.131.789.789,0,0,1-.194.078,5.522,5.522,0,0,1-.6.131,3.936,3.936,0,0,1-.654.054h-.52a2.912,2.912,0,0,1-.842-.105,1.325,1.325,0,0,1-.571-.326,2.278,2.278,0,0,1-.337-.466,2.027,2.027,0,0,1-.2-.518c-.008-.044-.021-.085-.032-.125a.36.36,0,0,1-.021-.123.666.666,0,0,1-.019-.118q-.006-.067-.006-.119a2.073,2.073,0,0,1-.014-.236V85.5Z" transform="translate(-31.471 -31.883)" fill="#6d6e6e"/>
    <path id="Path_1180" data-name="Path 1180" d="M67.265,51.2l5.692-.013.017,3.8c.01.758.164,1.518,1.03,1.518,1.09,0,1.126-1.229,1.125-2.148l-.006-.993c-.013-4.324-7.892-3.746-7.905-10.484V41.557c-.012-4.3,2.6-5.853,6.643-5.863,5.692-.014,6.734,2.623,6.741,5.17l0,2.2-5.464.015-.007-1.947c0-1.48-.669-1.685-1.2-1.684-.6.007-1.032.369-1.023,1.552v1.032c.007,3.429,8.094,3.384,8.11,10.317V54.2c.011,4.778-2.866,6.041-7.113,6.053-5.792.01-6.629-2.758-6.637-6.126Z" transform="translate(-30.668 -31.471)" fill="#0070ab" fill-rule="evenodd"/>
    <path id="Path_1181" data-name="Path 1181" d="M82.48,36.174l5.89-.015.016,5.716h.062a4.141,4.141,0,0,1,3.574-1.994c2.49,0,4.018,1.613,4.023,5.144l.041,14.693-5.9.011-.028-14.488c0-.6-.175-1.391-.937-1.39-.793,0-.827.828-.827,1.424l.037,14.462-5.9.01Z" transform="translate(-30.805 -31.475)" fill="#0070ab" fill-rule="evenodd"/>
    <path id="Path_1182" data-name="Path 1182" d="M97.97,40.4l5.7-.006v2.472h.075a4.374,4.374,0,0,1,3.631-2.981l.018,7.034c-.334-.032-.67-.067-1-.066a2.347,2.347,0,0,0-2.5,2.549l.019,10.339L98,59.752Z" transform="translate(-30.944 -31.509)" fill="#0070ab" fill-rule="evenodd"/>
    <path id="Path_1183" data-name="Path 1183" d="M108.332,40.347l5.889-.019.052,19.353-5.892.013Zm-.011-4.228,5.9-.017v2.972l-5.888.015Z" transform="translate(-31.037 -31.475)" fill="#0070ab" fill-rule="evenodd"/>
    <path id="Path_1184" data-name="Path 1184" d="M115.913,40.361l5.71-.018V42.82h.068a4.381,4.381,0,0,1,3.631-2.981l.016,7.037c-.324-.032-.659-.066-1-.066a2.365,2.365,0,0,0-2.513,2.549l.031,10.339-5.9.013Z" transform="translate(-31.106 -31.508)" fill="#0070ab" fill-rule="evenodd"/>
    <path id="Path_1185" data-name="Path 1185" d="M131.781,53.4a3.246,3.246,0,0,1,1.881-2.943l.009,5.053a.951.951,0,1,1-1.89-.093Zm7.769-7.878c-.018-4.49-2.594-5.7-6.772-5.693-4.443.009-6.5,1.664-6.487,5.919L126.3,47.8l5.473-.019-.016-3.826c0-.595.225-1.157.89-1.157a1.057,1.057,0,0,1,1.006,1.156V46.4c0,1.119-.3,1.453-3.61,2.71-3.6,1.331-3.735,2.126-3.734,4.336l.009,2.608c.011,2.444,1.332,4.125,3.848,4.119a5.3,5.3,0,0,0,3.716-1.591v1.089l5.693-.015Z" transform="translate(-31.199 -31.508)" fill="#0070ab" fill-rule="evenodd"/>
    <path id="Path_1186" data-name="Path 1186" d="M141.3,40.308l5.9-.016v1.483h.063a3.131,3.131,0,0,1,1.525-1.454,4.4,4.4,0,0,1,2.048-.533A3.979,3.979,0,0,1,154.357,42a5.3,5.3,0,0,1,3.868-2.225c2.479-.006,4,1.612,4.019,5.144l.034,14.692-5.905.014-.021-14.5c-.007-.595-.172-1.381-.937-1.38s-.784.823-.784,1.418l.027,14.463-5.7.009-.027-14.493c0-.593-.167-1.383-.9-1.383-.794,0-.827.826-.827,1.424l.029,14.461-5.891.012Z" transform="translate(-31.334 -31.508)" fill="#0070ab" fill-rule="evenodd"/>
    <path id="Path_1187" data-name="Path 1187" d="M69.856,63.183h.475c.473,0,.648.219.656.635v1.426c0,.414-.183.636-.656.636h-.464Zm-2.61,8.756,2.636-.007-.014-4.285,1.181-.006c1.683,0,2.239-1.022,2.238-2.537V63.809a2.192,2.192,0,0,0-2.5-2.4l-3.558.01Z" transform="translate(-30.668 -31.702)" fill="#0070ab" fill-rule="evenodd"/>
    <path id="Path_1188" data-name="Path 1188" d="M78.153,63.316,80.7,63.31v1.1h.034a1.955,1.955,0,0,1,1.623-1.329v3.135c-.154-.012-.291-.029-.444-.029a1.052,1.052,0,0,0-1.115,1.14l.012,4.611H78.172Z" transform="translate(-30.766 -31.717)" fill="#0070ab" fill-rule="evenodd"/>
    <path id="Path_1189" data-name="Path 1189" d="M89.833,65.034c0-.293.147-.58.476-.58s.467.282.468.576l0,4.565c0,.3-.134.574-.464.574s-.476-.274-.476-.573Zm-2.625,4.053c.009,2.239,1.66,2.852,3.111,2.846s3.1-.622,3.1-2.856l-.007-3.361c-.012-2.239-1.663-2.856-3.112-2.855s-3.1.626-3.095,2.871Z" transform="translate(-30.847 -31.716)" fill="#0070ab" fill-rule="evenodd"/>
    <path id="Path_1190" data-name="Path 1190" d="M100.916,65.144c0-.408.164-.6.468-.6.386,0,.478.235.478.6l.006,4.289c0,.452-.11.737-.464.738-.329,0-.476-.328-.476-.738ZM98.3,72.992l2.627-.012v-2h.029a2.1,2.1,0,0,0,1.685.949c1.73,0,1.864-1.618,1.863-2.977l-.011-3.4c0-1.5-.284-2.7-1.791-2.694a2.454,2.454,0,0,0-1.792.952v-.719l-2.629,0Z" transform="translate(-30.947 -31.715)" fill="#0070ab" fill-rule="evenodd"/>
    <path id="Path_1191" data-name="Path 1191" d="M112,65.01c0-.344.064-.567.4-.567.371,0,.455.282.462.6v1.061l-.858,0Zm-2.616,4.066c0,2.239,1.651,2.853,3.1,2.852a2.64,2.64,0,0,0,2.921-2.862V68.18l-2.545.007v1.544c0,.324-.084.606-.455.606-.324,0-.4-.22-.4-.56l0-2.251,3.4-.01V65.705a2.731,2.731,0,0,0-2.927-2.855c-1.452.01-3.1.631-3.1,2.871Z" transform="translate(-31.047 -31.715)" fill="#0070ab" fill-rule="evenodd"/>
    <path id="Path_1192" data-name="Path 1192" d="M120.272,63.295l2.545-.006v1.1h.029a1.953,1.953,0,0,1,1.621-1.326l0,3.139a3.3,3.3,0,0,0-.44-.033,1.043,1.043,0,0,0-1.115,1.137l0,4.611H120.29Z" transform="translate(-31.145 -31.717)" fill="#0070ab" fill-rule="evenodd"/>
    <path id="Path_1193" data-name="Path 1193" d="M129.318,63.283h.55l-.007-1.326,2.725-.008v1.331h.7v1.413h-.7l.01,5.448c.01.252.1.355.327.355h.372l.007,1.41h-1.451c-1.778.007-1.973-.684-1.973-2.021l-.01-5.187-.545,0Z" transform="translate(-31.226 -31.707)" fill="#0070ab" fill-rule="evenodd"/>
    <path id="Path_1194" data-name="Path 1194" d="M138.147,63.271l2.635-.006.018,8.63-2.628.008Zm0-1.886,2.635,0v1.326h-2.635Z" transform="translate(-31.306 -31.702)" fill="#0070ab" fill-rule="evenodd"/>
    <path id="Path_1195" data-name="Path 1195" d="M148.259,64.986c-.009-.338.076-.561.4-.561.385,0,.47.279.471.6v1.061l-.859,0Zm-2.617,4.072c.015,2.239,1.657,2.852,3.108,2.846a2.628,2.628,0,0,0,2.921-2.86v-.883h-2.544l0,1.551c0,.323-.082.605-.457.605-.323,0-.406-.22-.406-.564v-2.25l3.4-.008V65.683a2.726,2.726,0,0,0-2.928-2.851c-1.451,0-3.094.626-3.092,2.87Z" transform="translate(-31.373 -31.715)" fill="#0070ab" fill-rule="evenodd"/>
    <path id="Path_1196" data-name="Path 1196" d="M156.535,68.579l2.441,0V69.75a.428.428,0,0,0,.431.476.46.46,0,0,0,.47-.506v-.436c-.01-1.334-3.273-1.059-3.274-3.75-.01-1.146.259-2.7,2.922-2.706,1.1,0,2.771.427,2.772,2.193l.008.81-2.439,0v-.812c0-.364-.148-.513-.407-.513-.24,0-.423.119-.422.52l.009.333c0,.532.878.83,2.024,1.475a2.412,2.412,0,0,1,1.35,2.559c0,1.916-1.239,2.5-3.108,2.5-1.695.007-2.768-.536-2.775-2.379Z" transform="translate(-31.471 -31.715)" fill="#0070ab" fill-rule="evenodd"/>
    <path id="Path_1197" data-name="Path 1197" d="M62.985,69.771l-.955-7.387-3.5.363a2.585,2.585,0,0,0,.135-1.674l.237-.319c.317-2.492.588-5.3.717-7.878a2.107,2.107,0,0,0-1.54-2.626l-6.652-3.081a1.94,1.94,0,0,1,.819-1.9c.272-.045.436-.414.536-.994-.042-1.322-.537-1.321-.593-1.59a1.39,1.39,0,0,1,.492-1.223,2.047,2.047,0,0,0,.594-2.139c-1.17-1.852-2.258-.951-2.58-1.034a.945.945,0,0,1-.546-.545c-.626-1.354-3.034-1.992-4.746-1.991a4.757,4.757,0,0,0-3.934,1.633,3.447,3.447,0,0,0-1,4.484,1.645,1.645,0,0,1,0,1.049,2.765,2.765,0,0,1-.95.538,46.476,46.476,0,0,1-1.943-4.348,5.5,5.5,0,0,1,.176-1.4,2.272,2.272,0,0,0-.085-1.363,35.037,35.037,0,0,0-.916-3.486c-.312-1.129-.678-1.541-1.129-1.405-.674,0-.866.814-.815,1.995a2.146,2.146,0,0,0-1.309.864.9.9,0,0,0-1.183.41c-.542-.133-.947.184-1.213.721a1.89,1.89,0,0,0,.859,2.038c-.277.626.086,1.448.811,2.447,0,.088-.088.171-.177.267l-.4.368,1.635,6.208c.357,1.815.721,4.166,1.085,6.747a7.708,7.708,0,0,1,0,2.173l-1.359,8.248c.5.505,2.673,1.085,5.341,1.678l.182,1.444-5.344,1.312c-.352.184-.312.991.182,1.042l9.912-1,.36-1.487a.663.663,0,0,1,.956-.05l1.131,3.392,7.61,2a.8.8,0,0,0,.949-1.279Zm-22.9-3.33-.1-1.18.772-.045.128,1.173Zm9.678,1.4V66.579a5.8,5.8,0,0,0,1-.505.865.865,0,0,1,.73.452l.448,2.528c-.77-.267-1.535-.94-2.175-1.214" transform="translate(-30.343 -31.433)" fill="#201a18" fill-rule="evenodd"/>
    <path id="Path_1198" data-name="Path 1198" d="M48.5,41.786a.528.528,0,0,1,.539.558.519.519,0,0,1-.537.538.527.527,0,0,1-.551-.538.534.534,0,0,1,.549-.558M44.78,38.994a2.1,2.1,0,0,0,1.814-.187,1.74,1.74,0,0,0,.86.217c.955-.217,1.809-.4,2.4.313a.443.443,0,0,1-.267.6c-1.222-.365-1.716,0-2.35,1.082.041.275.442.088.9-.252a.89.89,0,0,1,.908-.382l1.267.231c.361,0,.682.453.631,1.084.053,1.451-.358,2.771-.208,5.3a1.08,1.08,0,0,1-.418,1c-1.31.225-2.631.495-3.934.808a2.9,2.9,0,0,1-1.318-.084,12.3,12.3,0,0,1-2.669-.941,1.9,1.9,0,0,1-.865-1.82,11.424,11.424,0,0,0,.273-2.4l-.223-2.89c.091-.824.408-1.368,1.222-1.369a.623.623,0,0,1,.274.511,4,4,0,0,0-.542,1.033c-.049.319.27.494.543.228a.9.9,0,0,1,1.265-.454,1.875,1.875,0,0,1,.816,1.537c-.049.676-.049,1.134-.094,1.767,0,.278.047.462.276.551a.4.4,0,0,1,.084.446.846.846,0,0,1-.672.232,3.63,3.63,0,0,1-1.506-.859c-.167-.275-.484,0-.391.265l.811.771c.492.448.812,1.809,2.493,1.808,1.669.094,1.982-1.077,2.391-1.628a5.069,5.069,0,0,1,.641-.856.677.677,0,0,0,.544-.363c-.1-.229-.33-.448-.545-.368-.143,0-.1.093-.227.229l-.23.4c-1.358.912-1.9.772-2.085.229l.5-.493c.136-.322-.083-.449-.276-.369-.589.37-1.13.369-1.362-.264a13.884,13.884,0,0,0,.142-2,2.907,2.907,0,0,0-1.4-1.9c-.315-.233-.175-.95.537-.764M43.7,41.933a.545.545,0,1,1,0,1.088.544.544,0,1,1,0-1.088m1.4,3.618h2.305c.185,0,.27.1.24.275a1.363,1.363,0,0,1-1.411.91,1.543,1.543,0,0,1-1.4-.637c-.28-.361-.142-.546.268-.546m2.176,3.674a20.315,20.315,0,0,0,2.667-.691c.318-.129.635-.04.581.332a7.357,7.357,0,0,1-1.256,2.3c-.312.369-.673.37-1.134,0a4.693,4.693,0,0,1-1.218-1.442c-.052-.367.093-.539.36-.5m-2.443.1a20.754,20.754,0,0,1-2.179-.821c-.305-.14-.671,0-.538.546a3.918,3.918,0,0,0,1.406,2.172c.318.276.228.178.594,0a3.837,3.837,0,0,0,1.036-1.359c.089-.363,0-.5-.318-.539M35.824,33.776a12.628,12.628,0,0,1-.331-1.8c0-.415.18-.548.6-.369A7.493,7.493,0,0,1,36.68,34Zm-.73-.349c-.4-.051-.631.073-.771.533a2.39,2.39,0,0,0,.548,2c.275.173.408.08.492-.239a5.686,5.686,0,0,1-.269-2.3m-1.445.711c-.5-.175-.674.106-.721.554-.047,1.309.542,1.9,1.221,1.273a4.26,4.26,0,0,1-.5-1.827m-1.364.68c-.31-.125-.4.049-.451.363-.039.96.5,1.683.91,1.23a4.5,4.5,0,0,1-.459-1.593m1.863,1.68c.315-.271.449-.088.583.272a1.357,1.357,0,0,0,.5.818,8.675,8.675,0,0,1,.633.678.326.326,0,0,0,.182-.5c-.553-.4-.64-.541-.594-1.085.041-.365.368-.546.859-.685a1.7,1.7,0,0,1-.586-1.213c.042-.324.4-.418.674-.189.322.188.546.542.9,1.5a1.5,1.5,0,0,1,.093,1c-.268,1.583-1.625,2.085-2.572,1.493a1.065,1.065,0,0,1-1.222.365,1.493,1.493,0,0,1-.818-1.584.527.527,0,0,1,.316-.64,6.444,6.444,0,0,0,1.044-.228M54.3,63.442l7.168-.544.676,5.433-7.025,1Zm-2.439.132,1.719-.085L54.3,69.33a2.115,2.115,0,0,1-1.711-.085Zm1.452-2.491a2.162,2.162,0,0,1,.862-1.991,1,1,0,0,1,1.212.045,1.155,1.155,0,0,1,.911.318,1,1,0,0,1,.813.322c.728.268,1.227.267,1.089,1.26a1.524,1.524,0,0,1-.637.875c-.406.394-.9.441-.988-.058l-.822.589c-.774.1-.547-.588-.594-1.215-.181-.864-.674-.954-.861-.5-.09.865-.85.946-.985.356" transform="translate(-30.349 -31.434)" fill="#fff" fill-rule="evenodd"/>
  </g>
</svg>
