<svg xmlns="http://www.w3.org/2000/svg" width="186.624" height="74.465" viewBox="0 0 186.624 74.465">
  <g id="Group_2343" data-name="Group 2343" transform="translate(0 0)">
    <rect id="Rectangle_2644" data-name="Rectangle 2644" width="6.955" height="25.571" transform="translate(134.92 38.968)" fill="#1a1818"/>
    <g id="Group_2312" data-name="Group 2312" transform="translate(0 0)">
      <g id="Group_2311" data-name="Group 2311" transform="translate(51.999)">
        <text id="Investment_Partner" data-name="Investment Partner" transform="translate(43 9)" fill="#1a1818" font-size="9" font-family="MontserratRoman-Medium, Montserrat" font-weight="500" letter-spacing="-0.02em"><tspan x="-43" y="0">Investment Partner</tspan></text>
      </g>
      <path id="Path_2207" data-name="Path 2207" d="M889.96,46.033v-3.3h1.3v-.616h-3.324v.616h1.3v3.3Z" transform="translate(-709.468 -13.259)" fill="#1a1818"/>
      <path id="Path_2208" data-name="Path 2208" d="M890.631,42.115h-.6v3.918h.694V43.469l1.287,2.116h.325l1.287-2.149.006,2.6h.688l0-3.918h-.6l-1.528,2.6Z" transform="translate(-707.696 -13.259)" fill="#1a1818"/>
      <path id="Path_2209" data-name="Path 2209" d="M870.058,49.676a10.415,10.415,0,0,0-7.069-2.236H859.9c-2.457,0-9.7,2.346-9.827,8.528h0v8.744c.078,6.229,7.362,8.589,9.83,8.589h3.086a10.454,10.454,0,0,0,7.069-2.23,8.9,8.9,0,0,0,3.571-6.482h-6.154a4.145,4.145,0,0,1-3.11,3.3H859.9c-2.632-.491-2.876-3.459-2.876-3.459v-8.12s.243-2.966,2.876-3.457h4.462a4.074,4.074,0,0,1,3.156,3.881h6.141A9.118,9.118,0,0,0,870.058,49.676Z" transform="translate(-741.448 -8.761)" fill="#1a1818"/>
      <path id="Path_2210" data-name="Path 2210" d="M852.741,47.454A9.95,9.95,0,0,0,846.1,49.73c-.91.727-2.431,2-3.293,2.723V47.729h-6.951V73.3h6.951V56.677c1.133-1.044,2.736-2.507,3.5-3.106a4.617,4.617,0,0,1,2.815-.7c3.088,0,3.617,3.365,3.617,3.365V73.3H859.7V55.558C859.7,53.7,857.633,47.729,852.741,47.454Z" transform="translate(-753.458 -8.76)" fill="#1a1818"/>
      <path id="Path_2211" data-name="Path 2211" d="M899.32,69.912l-5.595-18-.048.017H881.39v-9.78h-6.949v9.78h-5.069v5.08h5.069V69.984h.011c.131,5.445,3.994,8.312,8.517,8.856a20.032,20.032,0,0,0,8.713-1.068l-1.5-4.9a11.034,11.034,0,0,1-5.422.478c-3.435-.408-3.366-4.047-3.366-4.047V57.007h7.392l6.084,19.566h2.529a6.13,6.13,0,0,1-5.246,5.562h-5.765l1.848,5.563h4.947s6.456-.14,8.718-5.7c1.9-4.674,1.893-5.423,1.893-5.427l7.6-24.663h-6.521Z" transform="translate(-725.147 -13.233)" fill="#1a1818"/>
      <rect id="Rectangle_2645" data-name="Rectangle 2645" width="6.955" height="5.589" transform="translate(134.92 28.913)" fill="#1a1818"/>
      <path id="Path_2212" data-name="Path 2212" d="M799.51,70.024h3.47l9.544-16.159,2.046,3.192-7.658,12.967h3.468L818.07,57l-5.656-8.831Z" transform="translate(-784.157 -8.148)" fill="#1a1818"/>
      <path id="Path_2213" data-name="Path 2213" d="M813.191,60.892l2.043,3.195H818.7l.037-.059-5.66-8.831-5.247,8.89H811.3Z" transform="translate(-777.126 -2.21)" fill="#1a1818"/>
      <path id="Path_2214" data-name="Path 2214" d="M819.007,44.7h15.834V78.592H800.5l16.9-28.63-5.656-8.825L791.187,75.962h3.467l17.2-29.126,2.043,3.189L795.273,81.581h42.558V41.716H817.07Z" transform="translate(-791.187 -14.085)" fill="#1a1818"/>
      <path id="Path_2215" data-name="Path 2215" d="M830.665,50.765h0a3.7,3.7,0,0,1,3.411-3.785h3.082V42.119h-5.337s-3.9.457-5.73,2.431a8.511,8.511,0,0,0-2.37,6.215v1.184H818.2v5.08h5.521V77.795h6.947V57.029h9.906V77.795h6.947V51.949H830.665Z" transform="translate(-768.373 -13.256)" fill="#1a1818"/>
      <rect id="Rectangle_2646" data-name="Rectangle 2646" width="6.946" height="5.589" transform="translate(72.199 28.913)" fill="#1a1818"/>
    </g>
  </g>
</svg>
