<svg xmlns="http://www.w3.org/2000/svg" width="124.508" height="31.632" viewBox="0 0 124.508 31.632">
  <g id="Group_4521" data-name="Group 4521" transform="translate(-1630.849 -58.786)">
    <rect id="Rectangle_2644" data-name="Rectangle 2644" width="4.64" height="17.06" transform="translate(1720.862 66.736)" fill="#1a1818"/>
    <path id="Path_2207" data-name="Path 2207" d="M889.286,44.729v-2.2h.866v-.411h-2.218v.411h.866v2.2Z" transform="translate(861.98 17.875)" fill="#1a1818"/>
    <path id="Path_2208" data-name="Path 2208" d="M890.432,42.115h-.4v2.614h.463V43.018l.859,1.412h.217L892.43,43l0,1.733h.459l0-2.614h-.4l-1.02,1.732Z" transform="translate(862.464 17.875)" fill="#1a1818"/>
    <path id="Path_2209" data-name="Path 2209" d="M863.406,48.932a6.949,6.949,0,0,0-4.716-1.492h-2.059c-1.639,0-6.469,1.565-6.556,5.689h0v5.833c.052,4.156,4.912,5.73,6.558,5.73h2.059a6.974,6.974,0,0,0,4.716-1.488,5.938,5.938,0,0,0,2.383-4.325h-4.106a2.766,2.766,0,0,1-2.075,2.2h-2.977a2.586,2.586,0,0,1-1.919-2.308V53.358a2.585,2.585,0,0,1,1.919-2.306h2.977a2.718,2.718,0,0,1,2.106,2.589h4.1A6.083,6.083,0,0,0,863.406,48.932Z" transform="translate(853.246 19.103)" fill="#1a1818"/>
    <path id="Path_2210" data-name="Path 2210" d="M847.121,47.45a6.638,6.638,0,0,0-4.432,1.519c-.607.485-1.622,1.335-2.2,1.816V47.633h-4.637v17.06h4.637V53.6c.756-.7,1.825-1.672,2.337-2.072a3.08,3.08,0,0,1,1.878-.464c2.06,0,2.413,2.245,2.413,2.245V64.693h4.64V52.856C851.76,51.618,850.384,47.633,847.121,47.45Z" transform="translate(849.966 19.103)" fill="#1a1818"/>
    <path id="Path_2211" data-name="Path 2211" d="M889.352,60.67l-3.733-12.01-.032.011h-8.2V42.146h-4.636v6.525h-3.382V52.06h3.382v8.658h.007c.087,3.633,2.664,5.545,5.682,5.909a13.365,13.365,0,0,0,5.813-.713l-1-3.272a7.362,7.362,0,0,1-3.617.319,2.632,2.632,0,0,1-2.246-2.7v-8.2h4.931l4.059,13.054h1.687a4.09,4.09,0,0,1-3.5,3.711h-3.846l1.233,3.712h3.3s4.307-.094,5.816-3.8a16.287,16.287,0,0,0,1.263-3.621L897.4,48.66h-4.35Z" transform="translate(857.698 17.882)" fill="#1a1818"/>
    <rect id="Rectangle_2645" data-name="Rectangle 2645" width="4.64" height="3.728" transform="translate(1720.862 60.028)" fill="#1a1818"/>
    <path id="Path_2212" data-name="Path 2212" d="M799.51,62.749h2.315l6.367-10.78,1.365,2.13-5.109,8.651h2.314l5.13-8.691-3.773-5.891Z" transform="translate(841.582 19.271)" fill="#1a1818"/>
    <path id="Path_2213" data-name="Path 2213" d="M811.408,59l1.363,2.132h2.316l.025-.04L811.335,55.2l-3.5,5.931h2.313Z" transform="translate(843.502 20.892)" fill="#1a1818"/>
    <path id="Path_2214" data-name="Path 2214" d="M809.748,43.515h10.564V66.126H797.4l11.274-19.1L804.9,41.137,791.187,64.371H793.5l11.473-19.432,1.363,2.128L793.913,68.119h28.393v-26.6H808.455Z" transform="translate(839.662 17.649)" fill="#1a1818"/>
    <path id="Path_2215" data-name="Path 2215" d="M826.515,47.887h0a2.466,2.466,0,0,1,2.276-2.525h2.057V42.119h-3.56s-2.6.305-3.823,1.622a5.678,5.678,0,0,0-1.581,4.146v.79H818.2v3.389h3.683V65.92h4.635V52.067h6.609V65.92h4.635V48.677H826.515Z" transform="translate(845.893 17.876)" fill="#1a1818"/>
    <rect id="Rectangle_2646" data-name="Rectangle 2646" width="4.634" height="3.728" transform="translate(1679.017 60.028)" fill="#1a1818"/>
  </g>
</svg>
