<?xml version="1.0" encoding="utf-8"?><svg xmlns="http://www.w3.org/2000/svg" width="257.256" height="88.7" xmlns:v="https://vecta.io/nano"><defs><clipPath id="A"><path fill="none" d="M0 0h257.257v88.7H0z"/></clipPath><clipPath id="B"><path d="M311.646,286.269a24.535,24.535,0,0,1-9.154,5.278v3.947a28.8,28.8,0,0,0,7.808-3.028v43.688H315V286.269Z" transform="translate(-302.492 -286.269)" fill="none"/></clipPath><linearGradient id="C" x1="151.442" y1="122.49" x2="151.453" y2="122.49"><stop offset="0" stop-color="#e69117"/><stop offset="1" stop-color="#bd411b"/></linearGradient></defs><g clip-path="url(#A)"><g fill="#006aab"><path d="M145.865 26.771l-.011-8.036c-.005-.521.138-.686.669-.671h3.993c.442-.007.691.1.64.6-.013.128-.068.314.07.383.193.1.263-.123.367-.223 1.326-1.402 3.497-1.574 5.028-.4a2.91 2.91 0 0 1 .677.746c.2.324.362.32.623.048a4.9 4.9 0 0 1 2.378-1.5c.864-.232 1.784-.107 2.555.346s1.328 1.197 1.545 2.064a10.09 10.09 0 0 1 .29 2.648l.015 11.845c0 .813 0 .813-.837.813-1.252 0-2.5-.027-3.755.012-.56.017-.752-.131-.75-.721l-.023-11.844a5.06 5.06 0 0 0-.1-1 .71.71 0 0 0-.7-.614c-.381-.022-.571.257-.643.586a3.9 3.9 0 0 0-.068.826l.034 12.023c.006.62-.179.771-.774.75a54.47 54.47 0 0 0-3.813 0c-.495.018-.6-.131-.6-.591V22.956a5.18 5.18 0 0 0-.089-1.062c-.015-.182-.104-.351-.246-.467s-.324-.169-.506-.148c-.4.037-.57.294-.606.681a41.81 41.81 0 0 0-.041 5.466l.038 3.328.013 4.167c.007.414-.119.554-.538.548q-2.146-.031-4.291 0c-.423.007-.536-.13-.534-.541l.008-8.155h-.024m-46.817-7.55a4.04 4.04 0 0 1 2.636-1.44 3.38 3.38 0 0 1 4.024 3.148 21.74 21.74 0 0 1 .114 2.433q0 5.834.018 11.666c0 .348-.1.456-.431.454-1.49-.008-2.98-.018-4.47.005-.521.008-.449-.317-.449-.631V22.895c.031-.339-.012-.68-.126-1a.75.75 0 0 0-.766-.54c-.4.025-.528.325-.607.638a2.62 2.62 0 0 0-.048.649q0 5.3 0 10.595l.061 1.663c.028.427-.116.586-.572.59a40.14 40.14 0 0 0-4.343.067c-.467.054-.5-.234-.5-.595v-7.44l-.015-12.381c0-.628.2-.768.78-.752H98.4c.414-.007.548.115.54.535l-.006 3.691c0 .188-.068.393.1.6M82.679 27.82l2.026-.007c.387-.014.521.118.515.51l.018 2.916c.009.237.046.472.11.7a.77.77 0 0 0 .826.629.79.79 0 0 0 .807-.671c.32-2.487.315-3.54-1.849-4.983-1.264-.704-2.449-1.541-3.537-2.495a5.18 5.18 0 0 1-1.537-3.747c-.057-.968-.02-1.939.11-2.9.256-1.746 1.584-3.141 3.315-3.483 1.816-.474 3.726-.447 5.528.078a3.87 3.87 0 0 1 3.078 4.055l.008 1.666c.018.4-.141.516-.521.511-1.291-.016-2.582-.023-3.872 0-.442.008-.541-.169-.523-.562a7.1 7.1 0 0 0-.154-1.829c-.023-.241-.142-.463-.33-.616s-.429-.224-.67-.198c-.544.073-.739.455-.819.948a3.31 3.31 0 0 0 1.888 3.724 17.34 17.34 0 0 1 3.311 2.2c1.158.992 1.877 2.401 2 3.92.155 1.362.116 2.739-.118 4.09a4.17 4.17 0 0 1-3.509 3.43c-2.013.494-4.125.412-6.094-.239-1.311-.452-2.256-1.604-2.443-2.978-.186-1.415-.243-2.844-.172-4.27-.006-.375.239-.4.517-.4h2.086m61.787.837l.012 6.189c.007.51-.163.635-.645.624l-3.932-.006c-.359 0-.6-.011-.587-.488s-.283-.173-.411-.075a4.79 4.79 0 0 1-3.105 1.006c-1.736.029-3.173-1.342-3.225-3.078l-.048-3.331a2.82 2.82 0 0 1 1.987-2.972q1.455-.6 2.92-1.18a5.53 5.53 0 0 0 1.1-.589 1.23 1.23 0 0 0 .585-1.045l.005-2.321a1.05 1.05 0 0 0-.209-.61.73.73 0 0 0-.813-.365c-.348.067-.595.378-.58.732l.007 3.035c.012.471-.108.68-.627.667-1.27-.031-2.542-.023-3.813 0-.4.007-.58-.1-.555-.535A17.19 17.19 0 0 1 132.72 21a3.81 3.81 0 0 1 2.79-2.955 10.83 10.83 0 0 1 5.882 0c2.053.568 3.058 2.138 3.071 4.545v6.071m-5.35-1.359a2.61 2.61 0 0 0-1.576 2.077c-.063.787-.022 1.582-.017 2.374a.74.74 0 0 0 .172.556c.131.154.318.249.52.262a.83.83 0 0 0 .892-.776l.009-4.493m-26.609-7.185l.412-.61a3.99 3.99 0 0 1 1.37-1.3c.445-.25.985-.624 1.429-.4.353.178.12.8.126 1.221l.016 4.462c0 .414-.105.536-.543.515-1.788-.088-2.6.711-2.6 2.5l.011 8.27c0 .523-.1.731-.681.711l-4.11-.008c-.405.006-.555-.113-.555-.538q0-8.121-.04-16.24c0-.43.148-.539.553-.534q2.054.03 4.109 0c.395-.005.531.126.505.514-.028.415-.006.832-.006 1.428"/><path d="M128.482 19.789c.541-.708 1.222-1.296 2-1.729a4.7 4.7 0 0 1 .486-.223c.731-.249.809-.189.81.594l.007 5c.005.428-.091.607-.569.558-.689-.129-1.398.076-1.911.554s-.769 1.17-.689 1.866l.1 8.319c.028.63-.181.763-.767.748-1.349-.036-2.7-.014-4.048.018-.448.01-.574-.144-.572-.581q.018-8.089 0-16.179c0-.437.125-.588.573-.58h4.049c.415-.007.578.127.545.545-.028.362-.006.728-.006 1.093m-11.939 6.984l-.01-7.913c-.005-.52.1-.737.681-.718l4.111.007c.391-.005.5.127.513.513.119 5.414.055 10.827.082 16.241 0 .435-.118.593-.571.585-1.389-.025-2.781-.03-4.17 0-.493.011-.6-.176-.6-.621l.007-8.1h-.041m2.685-9.671c-.733 0-1.468-.012-2.2.005-.356.008-.5-.117-.492-.48v-1.782c-.008-.314.081-.474.433-.47q2.232.017 4.462 0c.349 0 .444.159.438.472v1.782c.009.363-.146.487-.5.48l-2.142-.006"/></g><g fill="#040505"><path d="M86.373 75.847h-5.319V47.211h5.319zm15.217-12.273H85.963v-4.54h15.626zm-.41-16.363h5.277v28.636h-5.277zm21.518 28.922a13.3 13.3 0 0 1-6.361-1.453c-1.747-.905-3.206-2.279-4.214-3.968a11.12 11.12 0 0 1-1.493-5.788 11.37 11.37 0 0 1 1.452-5.789 10.57 10.57 0 0 1 4.009-3.965 11.6 11.6 0 0 1 5.83-1.453 11.35 11.35 0 0 1 5.686 1.412c1.649.927 3.009 2.293 3.927 3.947.992 1.846 1.486 3.918 1.432 6.013l-.021.716-.062.757h-18.2v-3.4h15.5l-2.045 1.064c.046-1.146-.215-2.283-.757-3.294a5.7 5.7 0 0 0-2.188-2.249 6.47 6.47 0 0 0-3.273-.8c-1.148-.019-2.282.257-3.294.8a5.42 5.42 0 0 0-2.229 2.27 7.16 7.16 0 0 0-.777 3.4v.817a6.78 6.78 0 0 0 .88 3.477c.59 1.013 1.465 1.831 2.515 2.352a8.22 8.22 0 0 0 3.8.839 8.54 8.54 0 0 0 3.314-.614 7.76 7.76 0 0 0 2.618-1.8l2.782 3.191a9.79 9.79 0 0 1-3.743 2.618 13.53 13.53 0 0 1-5.093.9m13.954-.287V45.493h5.072v13.581l-.409 5.809.205 5.808v5.154zm12.068.287a10.15 10.15 0 0 1-4.95-1.207 8.07 8.07 0 0 1-3.416-3.7 14.46 14.46 0 0 1-1.207-6.3c-.081-2.177.354-4.343 1.269-6.32a8.5 8.5 0 0 1 3.436-3.681 9.84 9.84 0 0 1 4.868-1.207c1.984-.036 3.943.443 5.686 1.39a10.22 10.22 0 0 1 3.948 3.927 12.72 12.72 0 0 1 0 11.8 10.25 10.25 0 0 1-3.948 3.907c-1.743.947-3.702 1.427-5.686 1.391m-.614-4.336a6.54 6.54 0 0 0 3.334-.839c.981-.572 1.783-1.408 2.312-2.413.588-1.115.884-2.361.859-3.621a7.3 7.3 0 0 0-.859-3.62c-.539-.988-1.339-1.809-2.312-2.373-2.06-1.118-4.546-1.118-6.606 0a6.1 6.1 0 0 0-2.331 2.373 7.29 7.29 0 0 0-.859 3.62c-.025 1.26.27 2.506.859 3.621.532 1.009 1.341 1.846 2.331 2.413a6.49 6.49 0 0 0 3.273.839m15.34 4.049V45.493h5.072v13.581l-.409 5.809.205 5.808v5.154zm12.068.287a10.15 10.15 0 0 1-4.95-1.207 8.07 8.07 0 0 1-3.416-3.7 14.46 14.46 0 0 1-1.207-6.3c-.081-2.177.354-4.343 1.269-6.32a8.5 8.5 0 0 1 3.436-3.681 9.84 9.84 0 0 1 4.868-1.207c1.984-.036 3.943.443 5.686 1.39a10.22 10.22 0 0 1 3.948 3.927 12.72 12.72 0 0 1 0 11.8 10.25 10.25 0 0 1-3.948 3.907c-1.743.947-3.702 1.427-5.686 1.391m-.614-4.336a6.54 6.54 0 0 0 3.334-.839c.981-.572 1.783-1.408 2.312-2.413.588-1.115.884-2.361.859-3.621a7.3 7.3 0 0 0-.859-3.62 6.15 6.15 0 0 0-2.312-2.373c-2.06-1.118-4.546-1.118-6.606 0a6.1 6.1 0 0 0-2.331 2.373 7.29 7.29 0 0 0-.859 3.62c-.025 1.26.27 2.506.859 3.621.532 1.009 1.341 1.846 2.331 2.413a6.49 6.49 0 0 0 3.273.839m21.597 4.336a10.28 10.28 0 0 1-4.3-.839 6.64 6.64 0 0 1-2.843-2.331 5.92 5.92 0 0 1-1-3.375 6.34 6.34 0 0 1 .879-3.314c.688-1.066 1.699-1.883 2.885-2.331a13.7 13.7 0 0 1 5.318-.86h6.34v3.4H197.8q-2.577 0-3.5.838a2.73 2.73 0 0 0-.921 2.107 2.57 2.57 0 0 0 1.105 2.168 5.06 5.06 0 0 0 3.068.818 6.65 6.65 0 0 0 3.374-.858 5.07 5.07 0 0 0 2.189-2.537l.818 3.068a5.7 5.7 0 0 1-2.618 2.987 9.73 9.73 0 0 1-4.827 1.063m6.872-.287v-4.459l-.245-.9v-7.732a4.5 4.5 0 0 0-1.37-3.5 6 6 0 0 0-4.152-1.247 11.42 11.42 0 0 0-3.56.573 9.39 9.39 0 0 0-3.027 1.595l-2.005-3.722c1.268-.933 2.696-1.626 4.214-2.046a18.1 18.1 0 0 1 5.032-.695q4.787 0 7.364 2.29 2.577 2.29 2.577 7.037v12.8zm10.152-30.357h5.073v30.353h-5.073z"/></g><path fill="#006aab" d="M9.532 13.949h61.773v61.773H9.532z"/><g fill="#fff"><path d="M40.419 65.848c-10.771-.004-19.796-8.151-20.897-18.866a21.02 21.02 0 0 1 16.622-22.723v-4.515c-13.046 2.212-22.221 14.052-21.106 27.237s12.148 23.316 25.381 23.305q.753 0 1.5-.044v-4.447q-.744.053-1.5.053m23.448-30.919a25.43 25.43 0 0 0-23.449-15.542q-.817 0-1.626.051v4.449q.807-.061 1.626-.062a21.02 21.02 0 0 1 20.905 18.93c1.071 10.743-6.172 20.55-16.756 22.685v4.51a25.47 25.47 0 0 0 19.3-35.02"/><path d="M36.143 24.259v18.943h5.775v4.79h-5.775V58.07h-4.812V24.26s2.72-2.955 4.812 0m5.776 14.772l7.453-7.4v35.459l-4.8.747.095-28.789z"/></g></g><g clip-path="url(#B)" transform="translate(228.878 25.961)"><path transform="matrix(.866025 -.5 .5 .866025 -21.601 12.471)" fill="url(#C)" d="M0 0h35.773v49.454H0z"/></g></svg>