<svg id="Group_3440" data-name="Group 3440" xmlns="http://www.w3.org/2000/svg" xmlns:xlink="http://www.w3.org/1999/xlink" width="257.256" height="88.7" viewBox="0 0 257.256 88.7">
  <defs>
    <clipPath id="clip-path">
      <rect id="Rectangle_1331" data-name="Rectangle 1331" width="257.257" height="88.7" fill="none"/>
    </clipPath>
    <clipPath id="clip-path-2">
      <path id="Path_1216" data-name="Path 1216" d="M311.646,286.269a24.535,24.535,0,0,1-9.154,5.278v3.947a28.8,28.8,0,0,0,7.808-3.028v43.688H315V286.269Z" transform="translate(-302.492 -286.269)" fill="none"/>
    </clipPath>
    <linearGradient id="linear-gradient" x1="151.442" y1="122.49" x2="151.453" y2="122.49" gradientUnits="objectBoundingBox">
      <stop offset="0" stop-color="#e69117"/>
      <stop offset="1" stop-color="#bd411b"/>
    </linearGradient>
  </defs>
  <g id="Group_1201" data-name="Group 1201" transform="translate(0 0)">
    <g id="Group_1200" data-name="Group 1200" clip-path="url(#clip-path)">
      <path id="Path_1199" data-name="Path 1199" d="M202.959,285.417c0-2.678.013-5.357-.011-8.036-.005-.521.138-.686.669-.671,1.33.036,2.662.024,3.993,0,.442-.007.691.1.64.6-.013.128-.068.314.07.383.193.1.263-.123.367-.223a3.766,3.766,0,0,1,5.028-.4,2.908,2.908,0,0,1,.677.746c.2.324.362.32.623.048a4.9,4.9,0,0,1,2.378-1.5,3.335,3.335,0,0,1,4.1,2.41,10.091,10.091,0,0,1,.29,2.648c.035,3.948.016,7.9.015,11.845,0,.813,0,.813-.837.813-1.252,0-2.5-.027-3.755.012-.56.017-.752-.131-.75-.721.012-3.948-.014-7.9-.023-11.844a5.062,5.062,0,0,0-.1-1,.708.708,0,0,0-.7-.614c-.381-.022-.571.257-.643.586a3.9,3.9,0,0,0-.068.826c0,4.008,0,8.016.034,12.023.006.62-.179.771-.774.75-1.269-.046-2.543-.043-3.813,0-.495.018-.6-.131-.6-.591.016-3.968.011-7.937,0-11.905a5.127,5.127,0,0,0-.089-1.062.676.676,0,0,0-.752-.615c-.4.037-.57.294-.606.681a41.81,41.81,0,0,0-.041,5.466c.043,1.11.025,2.219.038,3.328.017,1.389-.009,2.778.013,4.167.007.414-.119.554-.538.548q-2.146-.031-4.291,0c-.423.007-.536-.13-.534-.541.016-2.719.008-5.437.008-8.155h-.024" transform="translate(-57.094 -258.646)" fill="#006aab"/>
      <path id="Path_1200" data-name="Path 1200" d="M145.732,277.228a4.041,4.041,0,0,1,2.636-1.44,3.376,3.376,0,0,1,4.024,3.148,21.74,21.74,0,0,1,.114,2.433q0,5.834.018,11.666c0,.348-.1.456-.431.454-1.49-.008-2.98-.018-4.47.005-.521.008-.449-.317-.449-.631V280.9a2.353,2.353,0,0,0-.126-1,.751.751,0,0,0-.766-.54c-.4.025-.528.325-.607.638a2.623,2.623,0,0,0-.048.649q0,5.3,0,10.595c0,.555.024,1.11.061,1.663.028.427-.116.586-.572.59a40.139,40.139,0,0,0-4.343.067c-.467.054-.5-.234-.5-.595.008-2.48,0-4.96,0-7.44,0-4.127.014-8.254-.015-12.381,0-.628.2-.768.78-.752,1.349.038,2.7.026,4.052,0,.414-.007.548.115.54.535-.026,1.23-.013,2.46-.006,3.691,0,.188-.068.393.1.6" transform="translate(-46.69 -258.005)" fill="#006aab"/>
      <path id="Path_1201" data-name="Path 1201" d="M126.677,285.737c.675,0,1.351.018,2.026-.007.387-.014.521.118.515.51-.017.972,0,1.944.018,2.916a2.983,2.983,0,0,0,.11.7.77.77,0,0,0,.826.629.79.79,0,0,0,.807-.671c.32-2.487.315-3.54-1.849-4.983a20.493,20.493,0,0,1-3.537-2.495,5.178,5.178,0,0,1-1.537-3.747,15.053,15.053,0,0,1,.11-2.9,4.167,4.167,0,0,1,3.315-3.483,10.393,10.393,0,0,1,5.528.078,3.87,3.87,0,0,1,3.078,4.055c.015.555-.018,1.113.008,1.666.018.4-.141.516-.521.511-1.291-.016-2.582-.023-3.872,0-.442.008-.541-.169-.523-.562a7.1,7.1,0,0,0-.154-1.829.907.907,0,0,0-1-.814c-.544.073-.739.455-.819.948a3.307,3.307,0,0,0,1.888,3.724,17.34,17.34,0,0,1,3.311,2.2,5.776,5.776,0,0,1,2,3.92,14.413,14.413,0,0,1-.118,4.09,4.168,4.168,0,0,1-3.509,3.43,11.033,11.033,0,0,1-6.094-.239,3.674,3.674,0,0,1-2.443-2.978,23.713,23.713,0,0,1-.172-4.27c-.006-.375.239-.4.517-.4h2.086" transform="translate(-43.998 -257.917)" fill="#006aab"/>
      <path id="Path_1202" data-name="Path 1202" d="M198.9,287.307c0,2.063-.017,4.127.012,6.189.007.51-.163.635-.645.624-1.31-.03-2.621-.018-3.932-.006-.359,0-.6-.011-.587-.488s-.283-.173-.411-.075a4.789,4.789,0,0,1-3.105,1.006,3.173,3.173,0,0,1-3.225-3.078c-.058-1.108.011-2.224-.048-3.331a2.822,2.822,0,0,1,1.987-2.972q1.455-.6,2.92-1.18a5.528,5.528,0,0,0,1.1-.589,1.229,1.229,0,0,0,.585-1.045c.006-.774,0-1.547.005-2.321a1.046,1.046,0,0,0-.209-.61.732.732,0,0,0-.813-.365.715.715,0,0,0-.58.732c0,1.012-.019,2.024.007,3.035.012.471-.108.68-.627.667-1.27-.031-2.542-.023-3.813,0-.4.007-.58-.1-.555-.535a17.19,17.19,0,0,1,.193-3.314,3.809,3.809,0,0,1,2.79-2.955,10.83,10.83,0,0,1,5.882,0c2.053.568,3.058,2.138,3.071,4.545.012,2.023,0,4.048,0,6.071m-5.35-1.359a2.611,2.611,0,0,0-1.576,2.077c-.063.787-.022,1.582-.017,2.374a.743.743,0,0,0,.692.818.832.832,0,0,0,.892-.776c.025-1.461.009-2.922.009-4.493" transform="translate(-54.439 -258.651)" fill="#006aab"/>
      <path id="Path_1203" data-name="Path 1203" d="M161.934,278.789c.2-.294.307-.45.412-.61a3.99,3.99,0,0,1,1.37-1.3c.445-.25.985-.624,1.429-.4.353.178.12.8.126,1.221.022,1.488,0,2.975.016,4.462,0,.414-.105.536-.543.515-1.788-.088-2.6.711-2.6,2.5,0,2.757-.012,5.514.011,8.27,0,.523-.1.731-.681.711-1.369-.044-2.741-.026-4.11-.008-.405.006-.555-.113-.555-.538q0-8.121-.04-16.24c0-.43.148-.539.553-.534q2.054.03,4.109,0c.395-.005.531.126.505.514-.028.415-.006.832-.006,1.428" transform="translate(-49.43 -258.672)" fill="#006aab"/>
      <path id="Path_1204" data-name="Path 1204" d="M181.092,278.454a6.477,6.477,0,0,1,2-1.729,4.7,4.7,0,0,1,.486-.223c.731-.249.809-.189.81.594,0,1.665-.01,3.33.007,5,.005.428-.091.607-.569.558a2.207,2.207,0,0,0-2.6,2.42c-.018,2.773-.021,5.548.1,8.319.028.63-.181.763-.767.748-1.349-.036-2.7-.014-4.048.018-.448.01-.574-.144-.572-.581q.018-8.089,0-16.179c0-.437.125-.588.573-.58,1.349.025,2.7.022,4.049,0,.415-.007.578.127.545.545-.028.362-.006.728-.006,1.093" transform="translate(-52.61 -258.665)" fill="#006aab"/>
      <path id="Path_1205" data-name="Path 1205" d="M167.812,285.528c0-2.637.013-5.275-.01-7.913-.005-.52.1-.737.681-.718,1.369.044,2.741.026,4.111.007.391-.005.5.127.513.513.119,5.414.055,10.827.082,16.241,0,.435-.118.593-.571.585-1.389-.025-2.781-.03-4.17,0-.493.011-.6-.176-.6-.621.013-2.7.007-5.4.007-8.1h-.041" transform="translate(-51.261 -258.752)" fill="#006aab"/>
      <path id="Path_1206" data-name="Path 1206" d="M170.5,275.1c-.733,0-1.468-.012-2.2.005-.356.008-.5-.117-.492-.48.018-.593.014-1.189,0-1.782-.008-.314.081-.474.433-.47q2.232.017,4.462,0c.349,0,.444.159.438.472-.011.594-.014,1.189,0,1.782.009.363-.146.487-.5.48-.714-.017-1.428-.005-2.142-.006" transform="translate(-51.262 -258.001)" fill="#006aab"/>
      <path id="Path_1207" data-name="Path 1207" d="M130.572,340.383h-5.319V311.747h5.319Zm15.217-12.273H130.162v-4.54h15.626Zm-.41-16.363h5.277v28.636h-5.277Z" transform="translate(-44.199 -264.536)" fill="#040505"/>
      <path id="Path_1208" data-name="Path 1208" d="M172.782,341.963a13.3,13.3,0,0,1-6.361-1.453,10.566,10.566,0,0,1-4.214-3.968,11.119,11.119,0,0,1-1.493-5.788,11.369,11.369,0,0,1,1.452-5.789A10.569,10.569,0,0,1,166.175,321a11.593,11.593,0,0,1,5.83-1.453,11.348,11.348,0,0,1,5.686,1.412,10.214,10.214,0,0,1,3.927,3.947,12.043,12.043,0,0,1,1.432,6.013c0,.191-.008.43-.021.716s-.034.539-.062.757h-18.2v-3.4h15.5l-2.045,1.064a6.427,6.427,0,0,0-.757-3.294,5.7,5.7,0,0,0-2.188-2.249,6.477,6.477,0,0,0-3.273-.8,6.733,6.733,0,0,0-3.294.8,5.418,5.418,0,0,0-2.229,2.27,7.162,7.162,0,0,0-.777,3.4V331a6.783,6.783,0,0,0,.88,3.477,5.994,5.994,0,0,0,2.515,2.352,8.224,8.224,0,0,0,3.8.839,8.54,8.54,0,0,0,3.314-.614,7.761,7.761,0,0,0,2.618-1.8l2.782,3.191a9.788,9.788,0,0,1-3.743,2.618,13.526,13.526,0,0,1-5.093.9" transform="translate(-50.084 -265.83)" fill="#040505"/>
      <path id="Path_1209" data-name="Path 1209" d="M191.909,340.04V309.687h5.072v13.581l-.409,5.809.205,5.808v5.154Zm12.068.287a10.151,10.151,0,0,1-4.95-1.207,8.072,8.072,0,0,1-3.416-3.7,14.461,14.461,0,0,1-1.207-6.3,13.823,13.823,0,0,1,1.269-6.32,8.5,8.5,0,0,1,3.436-3.681,9.833,9.833,0,0,1,4.868-1.207,11.484,11.484,0,0,1,5.686,1.39,10.215,10.215,0,0,1,3.948,3.927,12.716,12.716,0,0,1,0,11.8,10.252,10.252,0,0,1-3.948,3.907,11.476,11.476,0,0,1-5.686,1.391m-.614-4.336a6.54,6.54,0,0,0,3.334-.839,6.063,6.063,0,0,0,2.312-2.413,7.446,7.446,0,0,0,.859-3.621,7.3,7.3,0,0,0-.859-3.62,6.147,6.147,0,0,0-2.312-2.373,6.927,6.927,0,0,0-6.606,0,6.1,6.1,0,0,0-2.331,2.373,7.29,7.29,0,0,0-.859,3.62,7.437,7.437,0,0,0,.859,3.621,6.013,6.013,0,0,0,2.331,2.413,6.493,6.493,0,0,0,3.273.839" transform="translate(-55.262 -264.194)" fill="#040505"/>
      <path id="Path_1210" data-name="Path 1210" d="M224.035,340.04V309.687h5.072v13.581l-.409,5.809.205,5.808v5.154Zm12.068.287a10.15,10.15,0,0,1-4.95-1.207,8.071,8.071,0,0,1-3.416-3.7,14.461,14.461,0,0,1-1.207-6.3,13.823,13.823,0,0,1,1.269-6.32,8.5,8.5,0,0,1,3.436-3.681,9.833,9.833,0,0,1,4.868-1.207,11.484,11.484,0,0,1,5.686,1.39,10.215,10.215,0,0,1,3.948,3.927,12.716,12.716,0,0,1,0,11.8,10.252,10.252,0,0,1-3.948,3.907,11.476,11.476,0,0,1-5.686,1.391m-.614-4.336a6.54,6.54,0,0,0,3.334-.839,6.063,6.063,0,0,0,2.312-2.413,7.446,7.446,0,0,0,.859-3.621,7.3,7.3,0,0,0-.859-3.62,6.148,6.148,0,0,0-2.312-2.373,6.927,6.927,0,0,0-6.606,0,6.1,6.1,0,0,0-2.331,2.373,7.29,7.29,0,0,0-.859,3.62,7.436,7.436,0,0,0,.859,3.621,6.014,6.014,0,0,0,2.331,2.413,6.493,6.493,0,0,0,3.273.839" transform="translate(-60.593 -264.194)" fill="#040505"/>
      <path id="Path_1211" data-name="Path 1211" d="M262.045,341.963a10.281,10.281,0,0,1-4.3-.839,6.633,6.633,0,0,1-2.843-2.331,5.918,5.918,0,0,1-1-3.375,6.338,6.338,0,0,1,.879-3.314,5.927,5.927,0,0,1,2.885-2.331,13.693,13.693,0,0,1,5.318-.86h6.34v3.4h-5.973q-2.577,0-3.5.838a2.731,2.731,0,0,0-.921,2.107,2.567,2.567,0,0,0,1.105,2.168,5.058,5.058,0,0,0,3.068.818,6.652,6.652,0,0,0,3.374-.858,5.075,5.075,0,0,0,2.189-2.537l.818,3.068a5.7,5.7,0,0,1-2.618,2.987,9.734,9.734,0,0,1-4.827,1.063m6.872-.287v-4.459l-.245-.9v-7.732a4.5,4.5,0,0,0-1.37-3.5,6,6,0,0,0-4.152-1.247,11.423,11.423,0,0,0-3.56.573,9.391,9.391,0,0,0-3.027,1.595l-2.005-3.722a12.923,12.923,0,0,1,4.214-2.046,18.114,18.114,0,0,1,5.032-.695q4.787,0,7.364,2.29t2.577,7.037v12.8Z" transform="translate(-65.551 -265.83)" fill="#040505"/>
      <rect id="Rectangle_1329" data-name="Rectangle 1329" width="5.073" height="30.353" transform="translate(213.512 45.493)" fill="#040505"/>
      <rect id="Rectangle_1330" data-name="Rectangle 1330" width="61.773" height="61.773" transform="translate(9.532 13.949)" fill="#006aab"/>
      <path id="Path_1212" data-name="Path 1212" d="M71.468,324.918a21.015,21.015,0,0,1-4.275-41.589v-4.515a25.45,25.45,0,0,0,4.275,50.542q.753,0,1.5-.044v-4.447q-.744.053-1.5.053" transform="translate(-31.049 -259.07)" fill="#fff"/>
      <path id="Path_1213" data-name="Path 1213" d="M99.657,293.928a25.431,25.431,0,0,0-23.449-15.542q-.817,0-1.626.051v4.449q.807-.061,1.626-.062a21.015,21.015,0,0,1,4.149,41.615v4.51a25.471,25.471,0,0,0,19.3-35.02" transform="translate(-35.79 -258.999)" fill="#fff"/>
      <path id="Path_1214" data-name="Path 1214" d="M70.448,283.966v18.943h5.775v4.79H70.448v10.078H65.636v-33.81s2.72-2.955,4.812,0" transform="translate(-34.305 -259.707)" fill="#fff"/>
      <path id="Path_1215" data-name="Path 1215" d="M78.33,300.468l7.453-7.4v35.459l-4.8.747.095-28.789Z" transform="translate(-36.411 -261.436)" fill="#fff"/>
    </g>
  </g>
  <g id="Group_1203" data-name="Group 1203" transform="translate(228.878 25.961)">
    <g id="Group_1202" data-name="Group 1202" clip-path="url(#clip-path-2)">
      <rect id="Rectangle_1332" data-name="Rectangle 1332" width="35.773" height="49.454" transform="translate(-21.601 12.471) rotate(-30)" fill="url(#linear-gradient)"/>
    </g>
  </g>
</svg>
